/* XPM */
static char *b0676ebe850349f7cbad8b4ed71bb29cmAZWyGBnf03ipBdp[] = {
/* columns rows colors chars-per-pixel */
"32 32 20 1 ",
"  c None",
". c #5D1D00",
"X c #602502",
"o c #841600",
"O c #C63E00",
"+ c #A55008",
"@ c #E35E00",
"# c #D89A0A",
"$ c #E98D00",
"% c #E98D01",
"& c #FC8B08",
"* c #E5B90B",
"= c #F8BB06",
"- c #FFD308",
"; c #FEF811",
": c #FFFF19",
"> c #FFFF4E",
", c #F7E87A",
"< c #FBF9D7",
"1 c white",
/* pixels */
"                  ..            ",
"                  #X@.          ",
"                 .@=X=;.        ",
"                 >$+,:$;;.      ",
"                *$,,<<=:+$.     ",
"                .X<=,;;=+$$.    ",
"               .-;,,,<==@OO     ",
"               .=1;;;;=$,@.     ",
"               .=,,;;==@O.      ",
"               .=;==$=$OO       ",
"           ..&&.=;;=$@$@.       ",
"          .#X@X,<,;$@@+.        ",
"         .><$,1=,;,=@@.         ",
"        .>@$<<,;;;==+.          ",
"        >@=,,<<,;==@1X.         ",
"       .@$=<1<;=,$@@<@.         ",
"       .,=,<<1<,<$$@OO.         ",
"      .=+=<,,<,<==%X@O.         ",
"      .;=,<,<<<,=%%@OO.         ",
"     .$=,,1,;;<<=+%$@o.         ",
"     .@+=;,,,,<<<,@@@O          ",
"     .@$;;;1,,,,=%@@O.          ",
"    .&O+,,1<,<,=<$OOO.          ",
"    .o$==,;;;;;<@@,O.           ",
"    .O@$=<,<,;%%@,OO.           ",
"    .@@=,<,,,;%%@@@.            ",
"    ..O=;,<;,$$%OX.             ",
"     ..O;;,;==%@@.              ",
"       ..=X$$$@1O.              ",
"         ..@@@@o.               ",
"           .....                ",
"              .                 "
};
