/* XPM */
static char *_0a4a555de97464af54562764edfd95cbRTY2mZpA0A50ktT[] = {
/* columns rows colors chars-per-pixel */
"32 32 139 2 ",
"   c None",
".  c #010101",
"X  c #0C0504",
"o  c #060C03",
"O  c #0A0B02",
"+  c #0B0B0B",
"@  c #01030A",
"#  c #140000",
"$  c #120E0C",
"%  c #071200",
"&  c #0B1303",
"*  c #0D1B01",
"=  c #141006",
"-  c #1B130A",
";  c #141414",
":  c #191714",
">  c #1B1B1B",
",  c #2B0101",
"<  c #220800",
"1  c #340101",
"2  c #380A0A",
"3  c #2B150A",
"4  c #3F140F",
"5  c #271F1B",
"6  c #341F13",
"7  c #152A02",
"8  c #173000",
"9  c #1D3F02",
"0  c #213D08",
"q  c #2A211F",
"w  c #232323",
"e  c #2B2B2B",
"r  c #2D2625",
"t  c #302725",
"y  c #2F382F",
"u  c #343333",
"i  c #3A3A3A",
"p  c #4A0000",
"a  c #5F0000",
"s  c #600000",
"d  c #651515",
"f  c #503800",
"g  c #7F3D16",
"h  c #412F26",
"j  c #6C2020",
"k  c #1F5900",
"l  c #224305",
"z  c #244C02",
"x  c #284D09",
"c  c #285304",
"v  c #295800",
"b  c #306700",
"n  c #316900",
"m  c #346509",
"M  c #3B7E00",
"N  c #5B4A00",
"B  c #46413B",
"V  c #48433C",
"C  c #504330",
"Z  c #514837",
"A  c #444444",
"S  c #474847",
"D  c #4C4947",
"F  c #4B4B4B",
"G  c #4B4746",
"H  c #495049",
"J  c #535353",
"K  c #5C5C5B",
"L  c #675C50",
"P  c #646464",
"I  c #6C6C6C",
"U  c #7E7B69",
"Y  c #727272",
"T  c #7B7B7B",
"R  c #990000",
"E  c #A90100",
"W  c #BE2C00",
"Q  c #C20100",
"!  c #CE0401",
"~  c #DB0704",
"^  c #CC1111",
"/  c #C72E00",
"(  c #C92E00",
")  c #C13500",
"_  c #C63A00",
"`  c #DC3400",
"'  c #E63700",
"]  c #FC3D00",
"[  c #F74000",
"{  c #F05E00",
"}  c #FF571E",
"|  c #D77300",
" . c #D47E00",
".. c #DA7F00",
"X. c #E67C00",
"o. c #FF7745",
"O. c #3E8203",
"+. c #428B02",
"@. c #499B01",
"#. c #4DA300",
"$. c #C39100",
"%. c #CF9300",
"&. c #EBAD00",
"*. c #F2B400",
"=. c #92826C",
"-. c #888A7E",
";. c #828378",
":. c #FF854F",
">. c #FF9B70",
",. c #848484",
"<. c #878987",
"1. c #8D8D8D",
"2. c #939393",
"3. c #9B9B9B",
"4. c #9A9E92",
"5. c #9EA597",
"6. c #AEAD97",
"7. c #A2A698",
"8. c #A5A5A5",
"9. c #ADADAD",
"0. c #AEB0AE",
"q. c #B9BDAC",
"w. c #B2B2B2",
"e. c #B6B8B6",
"r. c gray73",
"t. c #FFBC8C",
"y. c #D9F081",
"u. c #C4C4C4",
"i. c #CECECE",
"p. c #CFD1CF",
"a. c #D4D4D4",
"s. c #DCDCDC",
"d. c #E6E6E6",
"f. c #E1E1E1",
"g. c #EAEAEA",
"h. c #EFEFEF",
"j. c gray96",
"k. c #FBFBFB",
"l. c white",
/* pixels */
"        j d 1 . .                                               ",
"    . # 1 R ! ! ! a a Q p 1                                     ",
"          . . . # ^ p E ~ ! X                                   ",
"            . . . . . . > K 3.u.l.l.d.h.s.9.1.u ; . . . . i     ",
"    . . > P w.9.9.w.w.1.T <.K S > + $ > w u i K 1.u.f.a.Y 3.X   ",
"    . > . . . . . . . . + w K K Y T T T ,.T + 3.2.i . . . . .   ",
"    . . + e A A F ,.3.3.2.1.3.3.3.3.1.T P K . p.H p.; A 1.F .   ",
"      . Y u u e i i ; . ; 2.r.e.w.0.,.9.w.<.u j.s.g.+ > u.X .   ",
"      . P + > ; + + . 9.2.8.1.<.A u ; ; X + + j.s.f.X . . . .   ",
"      . . > + F F F ,.e.; w + . . + + . . . + l.l.l.+ . . . .   ",
"      . Y I ,.w.9.i.a.+ . . . . . . . . . . + j.y 0.. . . . .   ",
"      . T Y Y 9.9.u.9.u.w.a.a.a.i.i.d.g.d.r.+ k.d.a.. 8.s.. .   ",
"      . e ; ; ; ; w e @ + + + X X . + . o . w l.l.l.. > F X .   ",
"      . e F e i i i Y Y ,.2.,.1.1.1.1.1.1.u @ l.P u.. J 1.; .   ",
"        . P . . i u i Y I <.1.,.1.1.<.1.1.u X l.l.l.. S 1.. .   ",
"        . F . . + A u T Y ,.1.2.1.1.1.<.1.u @ l.l.l.. J ,.X .   ",
"  . X . . . . . . . . F T Y 1.3.1.1.2.1.2.u X a.F u.. F 2.+ .   ",
"  . . . + e . . % . . i P Y ,.3.2.<.u.3.3.e + l.l.d.. F T . .   ",
"  . z M l 0 7 X * v 8 * > i F Y 1.1.2.2.T u . i.$ e . i A . .   ",
"  . o b #.O.x c * n O.m l o w A K I T 2.8.+ . l.l.i . w . .     ",
".   . . O.#.O.x % O v +.m 7 u . . . . . . . . . . . . .         ",
". z v v * x 9 o < g 3 c l o X + + + ; + + + + . + ; X           ",
"  . . . . > i i i e u @ . . U } ` _  .X.{ / ] A 5 . . .         ",
"  . . . w F A u A u S G $ . 5.:.` | f %.N W ] S t ; > .         ",
"      . J F F i A i S w ; . q.y.` %.$.*.&.W ` S t D + +         ",
"    . @ J A F F i I e w J ; 6 o.( ' ) ) W >.t.A : + F F .       ",
"    . . P I I Y K A . e K ; + 6.D G V V V H P S > . G h .       ",
"      . ; . . . . 5 F > ; . $ - 2 1 , , , < p O X . . .         ",
"        . . > : . @ . . . q i u L ;.<.4.7.Z + i - .             ",
"                    . $ ; ; ; $ X O O C =.X : X .               ",
"                    . . . o X . = O O . O . . $ @ .             ",
"                                                                "
};
