/* XPM */
static char *result[] = {
/* columns rows colors chars-per-pixel */
"32 32 178 2 ",
"   c black",
".  c #010000",
"X  c #000100",
"o  c #000001",
"O  c #010001",
"+  c #000101",
"@  c #010101",
"#  c #020000",
"$  c #030001",
"%  c #020101",
"&  c #000200",
"*  c #010200",
"=  c #000201",
"-  c #000002",
";  c #010002",
":  c #000102",
">  c #010102",
",  c #000003",
"<  c #000103",
"1  c #010103",
"2  c #020002",
"3  c #000202",
"4  c #020202",
"5  c #030202",
"6  c #020302",
"7  c #040000",
"8  c #040201",
"9  c #000400",
"0  c #020402",
"q  c #000104",
"w  c #010005",
"e  c #0A0E0D",
"r  c #1B1F21",
"t  c #282424",
"y  c #204153",
"u  c #224358",
"i  c #234259",
"p  c #2D5B56",
"a  c #2D5B57",
"s  c #2D5D58",
"d  c #305C58",
"f  c #2F615B",
"g  c #2C546B",
"h  c #2F566D",
"j  c #2E566E",
"k  c #2E586F",
"l  c #31576E",
"z  c #2E5571",
"x  c #2D5670",
"c  c #2D5671",
"v  c #2E5771",
"b  c #2E5572",
"n  c #2E5772",
"m  c #2C5870",
"M  c #2C5871",
"N  c #2E5870",
"B  c #2E5970",
"V  c #2F5971",
"C  c #2D5872",
"Z  c #305770",
"A  c #305771",
"S  c #3F7C73",
"D  c #3E7D73",
"F  c #3E7C74",
"G  c #435F76",
"H  c #58746F",
"J  c #406174",
"K  c #406178",
"L  c #426479",
"P  c #47667D",
"I  c #407A73",
"U  c #407B73",
"Y  c #417B73",
"T  c #447872",
"R  c #407C70",
"E  c #417B75",
"W  c #427A74",
"Q  c #417B76",
"!  c #437B76",
"~  c #437B77",
"^  c #447975",
"/  c #447B74",
"(  c #447B77",
")  c #417C75",
"_  c #407D75",
"`  c #427C74",
"'  c #437C74",
"]  c #427C75",
"[  c #407E74",
"{  c #417D76",
"}  c #427C76",
"|  c #437C76",
" . c #4F7D78",
".. c #567572",
"X. c #577673",
"o. c #557774",
"O. c #567674",
"+. c #587671",
"@. c #5B7976",
"#. c #DD1D1D",
"$. c #456B80",
"%. c #5B7E92",
"&. c #5C7E96",
"*. c #59819B",
"=. c #59829B",
"-. c #5D8198",
";. c #59829D",
":. c #58839D",
">. c #5A829D",
",. c #58829E",
"<. c #5A839E",
"1. c #5B839E",
"2. c #5A839F",
"3. c #5C819E",
"4. c #5C839E",
"5. c #5C839F",
"6. c #5A849D",
"7. c #59849E",
"8. c #5A849F",
"9. c #59869E",
"0. c #7A8F8A",
"q. c #7C908C",
"w. c #61849C",
"e. c #6B9B93",
"r. c #6A9997",
"t. c #739E97",
"y. c #799B96",
"u. c #799D97",
"i. c #729E9A",
"p. c #749F98",
"a. c #769E99",
"s. c #779D9A",
"d. c #769E9A",
"f. c #769F9B",
"g. c #789D9A",
"h. c #789F9B",
"j. c #799E9C",
"k. c #789F9C",
"l. c #789E9D",
"z. c #789F9D",
"x. c #77A099",
"c. c #76A09B",
"v. c #78A09C",
"b. c #79A19F",
"n. c #7CA49D",
"m. c #5981A1",
"M. c #5B83A0",
"N. c #5D81A2",
"B. c #5A85A0",
"V. c #5C84A1",
"C. c #939E9D",
"Z. c #939F9D",
"A. c #939E9E",
"S. c #939E9F",
"D. c #969D9E",
"F. c #94A09E",
"G. c #959DA0",
"H. c #8DAEAC",
"J. c #A7C1BD",
"K. c #A6C2BD",
"L. c #A7C1BF",
"P. c #A6C2BF",
"I. c #A8C3BE",
"U. c #A9C2BF",
"Y. c #83AFC5",
"T. c #85AFC6",
"R. c #84AFCA",
"E. c #82B0C9",
"W. c #83B0C9",
"Q. c #84B0CC",
"!. c #A7C0C1",
"~. c #A7C3C0",
"^. c #AAC1C0",
"/. c #A9C2C0",
"(. c #A8C2C3",
"). c #A9C4C1",
"_. c #AAC5C3",
"`. c None",
/* pixels */
"`.`.`.`.`.`.`.`.`.`.`.`.`.`.`.`.`.`.`.`.`.`.`.`.`.`.`.`.`.`.`.`.",
"`.`.`.`.`.`.`.`.`.`.`.`.`.`.`.`.`.`.`.`.`.`.`.`.`.`.`.`.`.`.`.`.",
"`.`.`.`.`.`.`.`.`.`.`.`.`.`.`.`.`.`.`.`.`.`.`.`.`.`.`.`.`.`.`.`.",
"`.`.`.`.`.`.`.          `.`.`.`.`.`.`.`.`.`.`.`.`.`.`.`.`.`.`.`.",
"`.`.`.`.`.`.`.  W.W.4.4.@   `.`.`.`.`.`.`.`.`.`.`.`.`.`.`.`.`.`.",
"`.`.`.`.`.`.`.`.    n 2.2.2.@ `.`.`.`.`.`.`.`.`.`.`.`.`.`.`.`.`.",
"`.`.`.`.`.`.  @ @   O O V , k   `.`.`.`.`.`.`.`.`.`.`.`.`.`.`.`.",
"`.`.`.C.Z.C.o I.~.J./.b.- X   V   `.`.`.`.`.`.`.`.`.`.`.`.`.`.`.",
"`.A.S.`.`.`.`.  I p.#.U.).(.i.@ @ `.`.`.`.`.`.`.`.`.`.`.`.`.`.`.",
"`.`.`.`.`.`.`.`.  w h.h.v./.L.y.d.    `.`.`.`.`.`.`.`.`.`.`.`.`.",
"`.`.`.F.A.A.A.A.  l.d.d.c.d.a.d.d.d.^     `.`.`.`.`.`.`.`.`.`.`.",
"`.G.D.`.`.`.`.`.`.R F d.d.d.d.d.d.d.; ^.t.  `.`.`.`.`.`.`.`.`.`.",
"S.`.`.`.`.`.`.`.`.    E D h.d.d.d.Y - /._.(   `.`.`.`.`.`.`.`.`.",
"`.@ @ `.`.`.`.`.`.`.`.1 7 g.d.d.d.Q - x.d.` K.`.`.`.`.`.`.`.`.`.",
"`.Y.;.  `.    `.`.`.@ :.b W ~ d.` E # h.j.!.k.5 `.`.`.`.`.`.`.`.",
"`.  . 7.o :.m.    X 9.9 P r.E ' E E X h.k.P.z.0.  `.`.`.`.`.`.`.",
"`.`.`.c . R.2.K &.G w.$.X < T d f p * ..X.s.o.q.H `.`.`.`.`.`.`.",
"`.    = Q.B.5.J -.V L r `.`.= e     X S / H.d.+.e.  `.`.`.`.`.`.",
"  E.W.W.R.2.N i u # t `.`.  %.    0 y a s n. .O.@.u.  `.`.`.`.`.",
"o   o N v v N X o `.`.`.X B @ `.  3 2 < - ] ! h.[ d.) -     @ `.",
"`.`.`.< - - : `.`.`.`.T.N.- `.`.  > 2 q `.X U _ { d.} - 1.M.z @ ",
"`.`.`.`.`.`.`.`.`.`.@ 8 @ `.`.`.`.W.. 3.@ `.@ | } E f.l % $ 2.& ",
"`.`.`.`.`.`.`.`.`.`.    `.`.`.`.`.V.@ 6 ,.`.`.: - E =   Z >.+ . ",
"`.`.`.`.`.`.`.`.`.`.X   `.`.`.`.`.8.$ $ *.`.`.`.`.> j x > 2.<.  ",
"`.`.`.`.`.`.`.`.`.  Z `.`.`.`.`.`.C @ `.. 4 `.`.`.`.  =.6.    `.",
"`.`.`.`.            A `.`.`.`.`.`.M   `.X   `.`.`.`.`.@   h g `.",
"`.`.`.`.              `.          m   `.`.B @       `.`.`.> O `.",
"`.`.`.`.`.`.`.`.`.`.`.`.          3   `.`.          `.`.`.`.`.`.",
"`.`.`.`.`.`.`.`.`.`.`.`.`.`.`.`.`.`.`.`.`.`.`.`.`.`.`.`.`.`.`.`.",
"`.`.`.`.`.`.`.`.`.`.`.`.`.`.`.`.`.`.`.`.`.`.`.`.`.`.`.`.`.`.`.`.",
"`.`.`.`.`.`.`.`.`.`.`.`.`.`.`.`.`.`.`.`.`.`.`.`.`.`.`.`.`.`.`.`.",
"`.`.`.`.`.`.`.`.`.`.`.`.`.`.`.`.`.`.`.`.`.`.`.`.`.`.`.`.`.`.`.`."
};
