/* XPM */
static char *result[] = {
/* columns rows colors chars-per-pixel */
"32 32 20 1 ",
"  c #5D1D00",
". c #602502",
"X c #841600",
"o c #C63E00",
"O c #A55008",
"+ c #E35E00",
"@ c #D89A0A",
"# c #E98D00",
"$ c #E98D01",
"% c #FC8B08",
"& c #E5B90B",
"* c #F8BB06",
"= c #FFD308",
"- c #FEF811",
"; c #FFFF19",
": c #FFFF4E",
"> c #F7E87A",
", c #FBF9D7",
"< c white",
"1 c None",
/* pixels */
"111111111111111111  111111111111",
"111111111111111111@.+ 1111111111",
"11111111111111111 +*.*- 11111111",
"11111111111111111:#O>;#-- 111111",
"1111111111111111&#>>,,*;O# 11111",
"1111111111++1111 .,*>--*O$$ 1111",
"111111111+11111 =->>>,**+oo11111",
"11111111++11111 *<----*$>+ 11111",
"11111111+111111 *>>--**+o 111111",
"111111+++111111 *-**#*#oo1111111",
"111111+1111  %% *--*$+#+ 1111111",
"11111++111 @.+.>,>-#++O 11111111",
"11111+111 :,$><*>->*++ 111111111",
"1111+111 :+#,,>---**O 111111--11",
"11111111:+*>>,,>-**+<. 1111--111",
"1111111 +#*,<,-*>$++,+ 111--1111",
"1111111 >*>,,<,>,$$+oo 111-11111",
"111111 *O*,>>,>,**$.+o 11--11111",
"111111 -*>,>,,,>*$$+oo 1--111111",
"11111 $*>><>--,,*O$#+X 1-1111111",
"11111 +O*->>>>,,,>+++o1111111111",
"11111 +#---<>>>>*$++o 1111111111",
"1111 %oO>><,>,>*,#ooo 1111111111",
"1111 X$**>-----,++>o 11111111111",
"1111 o+$*,>,>-$$+>oo 11111111111",
"1111 ++*>,>>>-$$+++ 111111111111",
"1111  o*->,->#$$o. 1111111111111",
"11111  o-->-**$++ 11111111111111",
"1111111  *.#$$+<o 11111111111111",
"111111111  ++++X 111111111111111",
"11111111111     1111111111111111",
"11111111111111 11111111111111111"
};
