/* XPM */
static char *result[] = {
/* columns rows colors chars-per-pixel */
"32 32 179 2 ",
"   c #6A4A42",
".  c #6B4A42",
"X  c #6B4A43",
"o  c #6B4B43",
"O  c #6C4B43",
"+  c #6B4C43",
"@  c #6C4C43",
"#  c #6E4D42",
"$  c #6C4A44",
"%  c #725040",
"&  c #745243",
"*  c #765343",
"=  c #775443",
"-  c #7C5842",
";  c #676B6B",
":  c #686C6C",
">  c #686D6D",
",  c #696D6D",
"<  c #696E6E",
"1  c #6A6E6F",
"2  c #6A6F6F",
"3  c #6A7070",
"4  c #6B7070",
"5  c #6B7071",
"6  c #6C7172",
"7  c #6C7273",
"8  c #6D7274",
"9  c #6D7374",
"0  c #6E7374",
"q  c #6E7375",
"w  c #6F7476",
"e  c #6F7576",
"r  c #6F7577",
"t  c #707577",
"y  c #7A7970",
"u  c #707678",
"i  c #717678",
"p  c #717779",
"a  c #71777A",
"s  c #72787A",
"d  c #72787B",
"f  c #73797B",
"g  c #747978",
"h  c #73797C",
"j  c #737A7C",
"k  c #747A7D",
"l  c #747B7E",
"z  c #757B7E",
"x  c #777C7D",
"c  c #757C7F",
"v  c #757D7F",
"b  c #767C7E",
"n  c #767D7F",
"m  c #805A3B",
"M  c #855E38",
"N  c #865F3F",
"B  c #A97729",
"V  c #B07C25",
"C  c #FF5E36",
"Z  c #FF5F37",
"A  c #FE702E",
"S  c #FF6034",
"D  c #FE6D31",
"F  c #FF7039",
"G  c #FF7E3A",
"H  c #FF7F3B",
"J  c #876043",
"K  c #886143",
"L  c #8D6440",
"P  c #966C43",
"I  c #986D42",
"U  c #877F66",
"Y  c #B4823F",
"T  c #C38A1F",
"R  c #D59716",
"E  c #F99F12",
"W  c #FA9D1E",
"Q  c #F6AE07",
"!  c #F6AF07",
"~  c #F7AF07",
"^  c #F8AF07",
"/  c #F7AF09",
"(  c #F5AE0A",
")  c #F8B00F",
"_  c #EEA914",
"`  c #ECA91B",
"'  c #F8A611",
"]  c #F8AF10",
"[  c #F8AD14",
"{  c #F3AE1F",
"}  c #F7B011",
"|  c #F8B112",
" . c #F9B115",
".. c #FAB31F",
"X. c #DC8E37",
"o. c #FC8221",
"O. c #F6812C",
"+. c #EC8234",
"@. c #FF8A3B",
"#. c #E1A225",
"$. c #E6A727",
"%. c #FAAF20",
"&. c #FBB421",
"*. c #FCB423",
"=. c #FBB527",
"-. c #FCB526",
";. c #FBB528",
":. c #FCB529",
">. c #E3A731",
",. c #E7AB35",
"<. c #E1A43A",
"1. c #EAAA3E",
"2. c #ECAC3D",
"3. c #F4AF3D",
"4. c #FCB831",
"5. c #FDB837",
"6. c #FDB838",
"7. c #FEB93B",
"8. c #FEB93C",
"9. c #FDBB3D",
"0. c #FFBB3F",
"q. c #978055",
"w. c #AD9057",
"e. c #A08F6B",
"r. c #DBA84C",
"t. c #D7AC5E",
"y. c #E6AF4D",
"u. c #ECB24A",
"i. c #FFB342",
"p. c #FFBA41",
"a. c #FFB942",
"s. c #FFBA42",
"d. c #FFBB42",
"f. c #FFBA43",
"g. c #FFBB45",
"h. c #FFBC46",
"j. c #FFBD49",
"k. c #FFBE4B",
"l. c #C3A468",
"z. c #FFC04F",
"x. c #FBC64F",
"c. c #FCC44F",
"v. c #FFC255",
"b. c #FFC357",
"n. c #FFC65D",
"m. c #FEC85E",
"M. c #FFCD6E",
"N. c #FFCF71",
"B. c #FFCF72",
"V. c #FED57E",
"C. c #FFD47F",
"Z. c #767D80",
"A. c #777D80",
"S. c #7C8080",
"D. c #868C8E",
"F. c #8D9090",
"G. c #919596",
"H. c #95999A",
"J. c #B6B5AE",
"K. c #BBBCBC",
"L. c #C9B796",
"P. c #FFB88B",
"I. c #FBDB80",
"U. c #FFD888",
"Y. c #FEDA8A",
"T. c #FFDC93",
"R. c #FFDE95",
"E. c #FFE09B",
"W. c #FFE19E",
"Q. c #FFE5A1",
"!. c #FDEFB7",
"~. c #FFEEBA",
"^. c #C4C6C6",
"/. c #CBCCCC",
"(. c #CECFCF",
"). c #D0D1D1",
"_. c #FFF1C2",
"`. c #F8F6D9",
"'. c None",
/* pixels */
"'.'.'.'.'.'.'.'.'.'.'.'.'.'.'.'.'.'.'.'.'.'.'.'.'.'.'.'.'.'.'.'.",
"'.'.'.'.'.'.'.'.'.'.'.'.'.'.'.'.'.'.'.'.'.'.'.'.. o @ '.'.'.'.'.",
"'.'.'.'.'.'.'.'.'.'.'.'.'.'.'.'.'.'.'.'.'.'.'.'.o '.@ '.'.'.'.'.",
"'.'.'.'.'.'.'.'.'.'.'.'.'.'.'.'.'.'.'.'.'.'.'.'.o o '.'.'.'.'.'.",
"'.'.'.'.'.'.'.'.'.'.'.'.'.'.'.'.'.'.'.'.'.'.o o o '.'.'.'.'.'.'.",
"'.'.'.'.'.'.'.'.'.'.'.'.'.'.'.'.'.'.'.'.'.'.o o o '.'.'.'.'.'.'.",
"'.'.'.'.'.'.'.'.'.'.'.'.'.'.'.'.'.'.'.'.'.'.X o '.'.'.'.'.'.'.'.",
"'.'.'.'.'.'.'.'.'.'.'.'.'.'.'.'.'.'.'.'.'.O o   '.'.'.'.'.'.'.'.",
"'.'.'.'.'.'.'.'.'.'.'.'.'.'.'.'.'.o o o o o o o o o '.'.'.'.'.'.",
"'.'.'.'.'.'.'.'.'.'.'.'.'.'.'.'.'.'.'.'.o o '.'.'.'.'.'.'.'.'.'.",
"'.'.'.'.'.'.'.'.'.'.'.'.'.'.'.'.'.'.+ o o '.'.'.'.' G H '.'.'.'.",
"'.'.'.'.'.'.'.'.'.'.'.'.'.'.'.'.'.'.o X + '.'.'.'.:.s.d.'.'.'.'.",
"'.'.'.'.'.'.'.'.'.'.'.'.'.'.'.'.'.'.o o '.'.'.'.W W.a.'.'.'.'.'.",
"'.'.'.'.'.'.'.'.d.d.'.'.'.'.'.'.'.'.'.o '.'.'.~ p.j.'.'.'.'.'.'.",
"'.'.'.'.'.'.'.'.d.~.d.d.'.F '.'.'.'.o o '.'.[ n.~.s.'.'.'.'.'.'.",
"'.'.'.'.'.'.'.'.'.d.~.~.~.'.T.k.'.m B B R ~ !.E.f.'.'.'.'.'.'.'.",
"'.'.'.'.'.'.'.'.'.'.d.~.] 6.=.0.`.L.I.I.x.;.Q.'.'.'.'.'.'.'.'.'.",
"'.'.'.'.'.'.'.'.( X.Z '.V.m.'.'.K K K I '.'.'.C '.'.'.'.'.'.'.'.",
"'.'.'.'.'.'.'.! D g.d.'.h.g.'.'.o o $ '.^ / A '.'.'.'.'.'.'.'.'.",
"'.'.'.'.'.'.'.Q >._.d.'...Y.b.'.o % V ~ ;.s.s.'.'.'.'.'.'.'.'.'.",
"'.'.'.'.'.'.'.'.$.C.d.'.'.*.8.- o M ) c.N.'.} '.'.'.'.'.'.'.'.'.",
"'.'.'.'.'.'.'.! ` v.U.d.'.^ 5.& o N 4.9.'.'.o.S '.'.'.'.'.'.'.'.",
"'.'.'.'.'.'.'.'.'.| M.R.&.#.L @ o J s. .-.7.z.s.'.'.'.'.'.'.'.'.",
"'.'.'.'.'.'.'.'.'.'.~ %.@.'.o o o J 3.+.P.N.'.'.'.'.'.'.'.'.'.'.",
"'.'.'.'.'.'.'.'.'.'.E O.r.u.= o # '.i.g.'.'.'.'.'.'.'.'.'.'.'.'.",
"'.'.'.'.'.'.'.Z.p U _ { <.Y * o T ,.B.l.Z.t l 9 Z.'.'.'.'.'.'.'.",
"'.'.'.'.'.Z.Z.Z.4 D.J.w.1.P o o s.h.t.y c 8 s Z.2 Z.Z.'.'.'.'.'.",
"'.'.'.'.A.Z.Z.Z.< k , q.2.e.b b s.y.g 0 Z.Z.^.).n Z.Z.'.'.'.'.'.",
"'.'.'.Z.Z.q k h K.6 e x x < k 5 : c f H.(.F.k h f i : r Z.z '.'.",
"'.'.'.'.'.Z.Z.Z.c S./.G.0 j 1 9 ; , e d a q l c : Z.Z.'.'.'.'.'.",
"'.'.'.'.'.'.'.Z.d Z.s 7 6 w k u 6 3 l d z 6 t > s v '.'.'.'.'.'.",
"'.'.'.'.'.'.'.'.'.'.'.'.'.'.'.'.'.'.c Z.c '.'.'.'.'.'.'.'.'.'.'."
};
