/* XPM */
static char *b4161ec5e4ae40c7c3e5bedfaa6c5f4fd3L26FPLp5O89FOK[] = {
/* columns rows colors chars-per-pixel */
"32 32 2 1 ",
"  c black",
". c #444444",
/* pixels */
" .............................. ",
". ............................ .",
".. .......................... ..",
"... ........................ ...",
".... ...................... ....",
"..... .................... .....",
"...... .................. ......",
"....... ................ .......",
"........ .............. ........",
"......... ............ .........",
".......... .......... ..........",
"........... ........ ...........",
"............ ...... ............",
"............. .... .............",
".............. .. ..............",
"...............  ...............",
"...............  ...............",
".............. .. ..............",
"............. .... .............",
"...........  ...... ............",
"........... ........ ...........",
".......... .......... ..........",
"......... ............ .........",
"........ .............. ........",
"....... ................ .......",
"......  ................. ......",
"..... .................... .....",
".... ...................... ....",
"... ........................ ...",
".. .......................... ..",
". ............................ .",
" .............................. "
};
