/* XPM */
static char *_b831f0e3cc440ecc6e045302a1f742dxakeQjj4oXOFFV3w[] = {
/* columns rows colors chars-per-pixel */
"32 32 133 2 ",
"   c #221E38",
".  c #2D2036",
"X  c #24223A",
"o  c #2C243C",
"O  c #2C293F",
"+  c #35243A",
"@  c #3C263A",
"#  c #3E2D3E",
"$  c #28303F",
"%  c #3F323E",
"&  c #45273A",
"*  c #442A3B",
"=  c #492A3C",
"-  c #42323F",
";  c #2C2A41",
":  c #312C43",
">  c #2A3741",
",  c #2F3D44",
"<  c #343146",
"1  c #3A3E46",
"2  c #363449",
"3  c #3A374A",
"4  c #3D3A4C",
"5  c #4D2E41",
"6  c #4C3343",
"7  c #4D3C45",
"8  c #463449",
"9  c #403A48",
"0  c #523649",
"q  c #553F4E",
"w  c #523E50",
"e  c #2E4145",
"r  c #344346",
"t  c #3A4146",
"y  c #324949",
"u  c #3E4F53",
"i  c #44434B",
"p  c #48424B",
"a  c #434B4C",
"s  c #4C484B",
"d  c #54424A",
"f  c #544A4E",
"g  c #59484F",
"h  c #48514F",
"j  c #454452",
"k  c #4A4752",
"l  c #434951",
"z  c #4C4E53",
"x  c #534556",
"c  c #5C4455",
"v  c #544E56",
"b  c #5D4C54",
"n  c #534D5A",
"m  c #5D4D5C",
"M  c #4D5152",
"N  c #465659",
"B  c #4C5A5E",
"V  c #545454",
"C  c #5B5354",
"Z  c #5B5857",
"A  c #52535B",
"S  c #5D5A5B",
"D  c #614758",
"F  c #605557",
"G  c #62555D",
"H  c #645E5D",
"J  c #66605F",
"K  c #5A4F65",
"L  c #5A5164",
"P  c #565964",
"I  c #5F5E66",
"U  c #5C5C68",
"Y  c #665562",
"T  c #6A5565",
"R  c #615E67",
"E  c #6A5867",
"W  c #6D5768",
"Q  c #675D69",
"!  c #6A5B6A",
"~  c #715E6E",
"^  c #665D70",
"/  c #6B5E71",
"(  c #596770",
")  c #676160",
"_  c #6A6565",
"`  c #6C6867",
"'  c #63626A",
"]  c #6A646B",
"[  c #6E6C6C",
"{  c #716E6E",
"}  c #6B6172",
"|  c #626B72",
" . c #6C6C76",
".. c #756272",
"X. c #736A74",
"o. c #7C6E7C",
"O. c #62767D",
"+. c #6D747C",
"@. c #767676",
"#. c #7A7577",
"$. c #79757B",
"%. c #7D7A7C",
"&. c #806E7E",
"*. c #807C7F",
"=. c #777580",
"-. c #7D7482",
";. c #747986",
":. c #817D82",
">. c #887886",
",. c #897F8A",
"<. c #7D8285",
"1. c #7F878B",
"2. c #838086",
"3. c #80868A",
"4. c #8B828B",
"5. c #818B8F",
"6. c #8F8590",
"7. c #848E94",
"8. c #8B8B94",
"9. c #938794",
"0. c #968897",
"q. c #958D9B",
"w. c #849196",
"e. c #87969D",
"r. c #88979F",
"t. c #93919D",
"y. c #8B9BA4",
"u. c #949FAB",
"i. c #8EA3AD",
"p. c #95A2AF",
"a. c #91A7B1",
"s. c #93A9B6",
"d. c #94AEBA",
/* pixels */
"0.9.] < 3.p.0.0.q.9.0.0.0.%.O #.d.0.0.0.0.0.0.0.0.,.4 U i.q.0.0.",
"@.#.>.x y.@.@.@.%.@.@.@.@.6.= a.#.@.@.@.@.@.@.@.@.2.D 7.<.@.@.$.",
"@.@.` x 6.#.@.@.@.@.@.@.@.@.- 0.@.@.@.@.#.@.@.@.@.@.d &.%.@.@.@.",
"@.@.Z N 4.@.@.@.@.@.@.@.{ J y 0.@.@.@.@.@.@.@.@.@._ a $.%.@.@.@.",
"@.@.Z z 6.@.@.@.@.@.@.{ _ H 1 9.@.@.@.@.@.@.@.@.@.` 7 $.%.@.@.@.",
"[ ] d 8 4.%.@.{ { { [ J ` b @ ,.2.#.@.@.{ @.[ [ [ F 4 X.2.#.@.#.",
"V d + ; L ] V i i p s V g @   v ..G G A p v g g f 9   j ~ H A A ",
"O.T K L Y Q P 2 X 4 ( | E L K K b T Y 4 O A } W E U K K T m X k ",
"i.9.9.9.9.9.4.n : ' y.t.9.9.9.6.@.0.6.} 4 7.u.q.9.9.9.9.9.%.O @.",
"3.:.:.-.*.*.,.Y 8 ;.7.:.*.*.*.{ _ -.:.o.x r.<.:.:.%.:.:.:.4.* @.",
"@.@.@.@.@.@.%.G 0 -.2.@.@.@._ *.[ @.@.X.c 8.@.@.@.@.@.@.@.-.5 @.",
"@.@.@.@.@.#.{ V l -.:.@.#._ >.*.@.@.@.S V 4.@.@.@.@.@.@.@.) 1 @.",
"@.@.@.@.@.@.[ h u =.:.@.@.@.%.@.@.@.@.C c 4.@.@.@.@.@.@.@.J y @.",
"@.@.@.@.@.@.[ h u =.2.@.@.@.@.@.@.@.{ C c 4.{ _ [ @.@.@.@.J y @.",
"q.@.J { J H g + : I 4.-.@.@.J H H H F & 3 :.4.@.` H H H J = X @.",
"= y & X X . +     X @ & & X   X & * e     o % r y $   X &     X ",
"0.0.9.] 3 5.p.0.0.0.0.0.0.#.o @.d.9.0.0.q.9.0.0.0.2.4 R i.q.0.0.",
"@.@.#.&.m y.@.@.@.@.@.@.@.9.5 s.@.@.@.@.@.@.@.@.@.4.c 7.<.@.@.@.",
"@.@.@.Q q 4.@.@.@.@.@.@.@.@.- 9.@.@.@.@.@.@.@.@.@.@.d &.%.@.#.@.",
"@.@.@.C c 4.@.@.@.#.@.@.@.H t 0.@.@.@.@.@.@.@.@.@._ 7 &.%.@.@.@.",
"@.@.@.V B 4.@.@.@.@.@.@.@.J 9 9.@.@.@.@.@.@.@.@.@.` a -.%.@.@.@.",
"@.@.{ Z A 4.@.@.@.@.@.@.@.J r 9.@.@.@.@.@.@.@.@.@._ i $.%.{ @.@.",
"{ [ [ d w 4.%.{ [ [ @.[ [ C , 4.:.@.@.@.{ [ [ [ { H - X.:.[ { { ",
"J J Z * 4 :.2.[ ) J J J J 6 X $.9.@.@.@.J J J J H d + ' 4.@.) ) ",
"d 7 6 . ; n K 9 9 9 a h d +   k ' b v j 4 t a M s #   4 U m d 4 ",
"....~ S ^ / ! 9 X j O.+...^ ^ ^  ...~ k ; ( <.+.X./ ^ ^  .....Q ",
"*.*.%.` :.:.,.Y 8 ;.w.2.:.:.:.:.:.:.:.o.x e.1.2.:.:.:.:.:.:.:.:.",
"@.@.@.{ ` @.$.Y 0 -.2.@.@.@.@.@.@.@.@.X.c 8.@.@.@.@.@.@.@.@.@.@.",
"@.@.@.@.@.@.[ M l =.:.@.@.@.@.@.@.@.@.S V 6.@.@.@.@.@.@.@.$.@.@.",
"@.@.@.@.@.@.[ M u =.:.@.@.@.@.@.@.@.@.V B 4.@.@.@.@.@.@.@.@.@.@.",
"@.@.J { H H g + ; R 4.*.@.@.J @.H H F * 3 :.4.#.@.@.` { ) H H H ",
"* y r t & % >     X @ = r y e y & * ,     . 9 y y y y y y * r X "
};
