/* XPM */
static char *result[] = {
/* columns rows colors chars-per-pixel */
"48 48 5 1 ",
"  c black",
". c #222034",
"X c #696A6A",
"o c #CBDBFC",
"O c None",
/* pixels */
"OOOOOOOOOOOOOOOOOOOOOOOOOOOOOOOOOOOOOOOOOOOOOOOO",
"OOOOOOOOOOOOOOOOOOOOOOOOOOOOOOOOOOOOOOOOOOOOOOOO",
"OOOOOOOOOOOOOOOOOOOOOOOOOOOOOOOOOOOOOOOOOOOOOOOO",
"OOOOOOOOOOOOOOOOOOOOOOOOOOOOOOOOOOOOOOOOOOOOOOOO",
"OOOOOOOOOOOOOOOOOOOOOOOOOOOOOOOOOOOOOOOOOOOOOOOO",
"OOOOOOOOOOOOOOOOOOOOOOOOOOOOOOOOOOOOOOOOOOOOOOOO",
"OOOOOOOOOOOOOOOOOOOOOOOOOOOOOOOOOOOOOOOOOOOOOOOO",
"OOOOOOOOOOOOOOOOOOOOOOOOOOOOOOOOOOOOOOOOOOOOOOOO",
"OOOOOOOOOOOOOOOOOOOOOOOOOOOOOOOOOOOOOOOOOOOOOOOO",
"OOOOOOOOOOOOOOOOOOOOOOOOOOOOOOOOOOOOOOOOOOOOOOOO",
"OOOOOOOOOOOOOOOOOOOOOOOOOOOOOOOOOOOOOOOOOOOOOOOO",
"OOOOOOOOOOOOOOOOOOO..OOO..OOOOOOOOOOOOOOOOOOOOOO",
"OOOOOOOOOOOOOOOOOO.. .O.. .OOOOOOOOOOOOOOOOOOOOO",
"OOOOOOOOOOOOOOOOO..   ..   .OOOOOOOOOOOOOOOOOOOO",
"OOOOOOOOOOOOOOO...     .    .OOOOOOOOOOOOOOOOOOO",
"OOOOOOOOOOO.....        .   .OOO....OOOOOOOOOOOO",
"OOOOOOOOOO...            .  .OO.   ..OOOOOOOOOOO",
"OOOOOOOOO..               .....   o...XXOOOOOOOO",
"OOOOOOO...             .   ....     XXXXXOOOOOOO",
"OOOOOO..     .          .      .    ....OOOOOOOO",
"OOOOOO..   .        .    ..   . .  ..OOOOOOOOOOO",
"OOOOOOO....           .    .  .   .OOOOOOOOOOOOO",
"OOOOOOOOO.          .        .   .OOOOOOOOOOOOOO",
"OOOOOOOOO.   ..  OO.        .   OOOOOOOOOOOOOOOO",
"OOOOOOOOOO....OOOO.       ..   OOOOOOOOOOOOOOOOO",
"OOOOOOOOOOOOOOOO...      .   OOOOOOOOOOOOOOOOOOO",
"OOOOOOOOOOOOOOO..       .   OOOOOOOOOOOOOOOOOOOO",
"OOOOOOOOOOOOO... .     ....OOOOOOOOOOOOOOOOOOOOO",
"OOOOOOOOOOO..    ........OOOOOOOOOOOOOOOOOOOOOOO",
"OOOOOOOOOOOO..  .O. XOO..XOOOOOOOOOOOOOOOOOOOOOO",
"OOOOOOOOOOOOOO..OOO. XOOO.XOOOOOOOOOOOOOOOOOOOOO",
"OOOOOOOOOOOOOOOOOOOOO XXOO XOOOOOOOOOOOOOOOOOOOO",
"OOOOOOOOOOOOOOOOOOOOX OOO.  X.OOOOOOOOOOOOOOOOOO",
"OOOOOOOOOOOOOOOOOOOOOOOOOOOOO.OOOOOOOOOOOOOOOOOO",
"OOOOOOOOOOOOOOOOOOOOOOOOOOOOOOOOOOOOOOOOOOOOOOOO",
"OOOOOOOOOOOOOOOOOOOOOOOOOOOOOOOOOOOOOOOOOOOOOOOO",
"OOOOOOOOOOOOOOOOOOOOOOOOOOOOOOOOOOOOOOOOOOOOOOOO",
"OOOOOOOOOOOOOOOOOOOOOOOOOOOOOOOOOOOOOOOOOOOOOOOO",
"OOOOOOOOOOOOOOOOOOOOOOOOOOOOOOOOOOOOOOOOOOOOOOOO",
"OOOOOOOOOOOOOOOOOOOOOOOOOOOOOOOOOOOOOOOOOOOOOOOO",
"OOOOOOOOOOOOOOOOOOOOOOOOOOOOOOOOOOOOOOOOOOOOOOOO",
"OOOOOOOOOOOOOOOOOOOOOOOOOOOOOOOOOOOOOOOOOOOOOOOO",
"OOOOOOOOOOOOOOOOOOOOOOOOOOOOOOOOOOOOOOOOOOOOOOOO",
"OOOOOOOOOOOOOOOOOOOOOOOOOOOOOOOOOOOOOOOOOOOOOOOO",
"OOOOOOOOOOOOOOOOOOOOOOOOOOOOOOOOOOOOOOOOOOOOOOOO",
"OOOOOOOOOOOOOOOOOOOOOOOOOOOOOOOOOOOOOOOOOOOOOOOO",
"OOOOOOOOOOOOOOOOOOOOOOOOOOOOOOOOOOOOOOOOOOOOOOOO",
"OOOOOOOOOOOOOOOOOOOOOOOOOOOOOOOOOOOOOOOOOOOOOOOO"
};
