/* XPM */
static char *result[] = {
/* columns rows colors chars-per-pixel */
"48 48 5 1 ",
"  c black",
". c #222034",
"X c #696A6A",
"o c #CBDBFC",
"O c None",
/* pixels */
"OOOOOOOOOOOOOOOOOOOOOOOOOOOOOOOOOOOOOOOOOOOOOOOO",
"OOOOOOOOOOOOOOOOOOOOOOOOOOOOOOOOOOOOOOOOOOOOOOOO",
"OOOOOOOOOOOOOOOOOOOOOOOOOOOOOOOOOOOOOOOOOOOOOOOO",
"OOOOOOOOOOOOOOOOOOOOOOOOOOOOOOOOOOOOOOOOOOOOOOOO",
"OOOOOOOOOOOOOOOOOOOOOOOOOOOOOOOOOOOOOOOOOOOOOOOO",
"OOOOOOOOOOOOOOOOOOOOOOOOOOOOOOOOOOOOOOOOOOOOOOOO",
"OOOOOOOOOOOOOOOOOOOOOOOOOOOOOOOOOOOOOOOOOOOOOOOO",
"OOOOOOOOOOOOOOOOOOOOOOOOOOOOOOOOOOOOOOOOOOOOOOOO",
"OOOOOOOOOOOOOOOOOOOOOOOOOOOOOOOOOOOOOOOOOOOOOOOO",
"OOOOOOOOOOOOOOOOOOOOOOOOOOOOOOOOOOOOOOOOOOOOOOOO",
"OOOOOOOOOOOOOOOOOOOOOOOOOOOOOOOOOOOOOOOOOOOOOOOO",
"OOOOOOOOOOOOOOOOOOOOOOOOOOOOOOOOOOOOOOOOOOOOOOOO",
"OOOOOOOOOOOOOOOOOOOOOO....OOOOOOOOOOOOOOOOOOOOOO",
"OOOOOOOOOOOOOOOOOOOOO.... .OOOOOOOOOOOOOOOOOOOOO",
"OOOOOOOOOOOOOOOOOOXX...o   .OOOOOOOOOOOOOOOOOOOO",
"OOOOOOOOOOOOOOOOOXXXXX ..   .OOOOOOOOOOOOOOOOOOO",
"OOOOOOOOOOOOOOOOO.....  .   ...OOOOOOOOOOOOOOOOO",
"OOOOOOOOOOOOOOOOOOOOO..    .   .OOOOOOOOOOOOOOOO",
"OOOOOOOOOOOOOOOOOOOOOO.   . ..  .OOOOOOOOOOOOOOO",
"OOOOOOOOOOOOOOOOOOOO.  . .    . .OOOOOOOOOOOOOOO",
"OOOOOOOOOOOOOOOOOOO. ..         .OOOOOOOOOOOOOOO",
"OOOOOOOOOOOOOOOOOO.          . .OOOOOOOOOOOOOOOO",
"OOOOOOOOOOOOOOOOOO.          ..OOOOOOOOOOOOOOOOO",
"OOOOOOOOOOOOOOOOO.     .  .  . OOOOOOOOOOOOOOOOO",
"OOOOOOOOOOOOOOOO.     .  .  . OOOOOOOOOOOOOOOOOO",
"OOOOOOOOOOOOOOO.     .   . . OOOOOOOOOOOOOOOOOOO",
"OOOOOOOOOOOOOO.       ..... OOOOOOOOOOOOOOOOOOOO",
"OOOOOOOOOOOOO. .  .    .   OOOOOOOOOOOOOOOOOOOOO",
"OOOOOOOOOOOO. ..  .   .  OOOOOOOOOOOOOOOOOOOOOOO",
"OOOOOOOOOOOO.. . .   .  .XOOOOOOOOOOOOOOOOOOOOOO",
"OOOOOOOOOOOOOO. .   . OOO.XOOOOOOOOOOOOOOOOOOOOO",
"OOOOOOOOOOOOO.  ....O XXOO XOOOOOOOOOOOOOOOOOOOO",
"OOOOOOOOOOOO.......OX OOO.  X.OOOOOOOOOOOOOOOOOO",
"OOOOOOOOOOOOOOOOOOOOOOOOOOOOO.OOOOOOOOOOOOOOOOOO",
"OOOOOOOOOOOOOOOOOOOOOOOOOOOOOOOOOOOOOOOOOOOOOOOO",
"OOOOOOOOOOOOOOOOOOOOOOOOOOOOOOOOOOOOOOOOOOOOOOOO",
"OOOOOOOOOOOOOOOOOOOOOOOOOOOOOOOOOOOOOOOOOOOOOOOO",
"OOOOOOOOOOOOOOOOOOOOOOOOOOOOOOOOOOOOOOOOOOOOOOOO",
"OOOOOOOOOOOOOOOOOOOOOOOOOOOOOOOOOOOOOOOOOOOOOOOO",
"OOOOOOOOOOOOOOOOOOOOOOOOOOOOOOOOOOOOOOOOOOOOOOOO",
"OOOOOOOOOOOOOOOOOOOOOOOOOOOOOOOOOOOOOOOOOOOOOOOO",
"OOOOOOOOOOOOOOOOOOOOOOOOOOOOOOOOOOOOOOOOOOOOOOOO",
"OOOOOOOOOOOOOOOOOOOOOOOOOOOOOOOOOOOOOOOOOOOOOOOO",
"OOOOOOOOOOOOOOOOOOOOOOOOOOOOOOOOOOOOOOOOOOOOOOOO",
"OOOOOOOOOOOOOOOOOOOOOOOOOOOOOOOOOOOOOOOOOOOOOOOO",
"OOOOOOOOOOOOOOOOOOOOOOOOOOOOOOOOOOOOOOOOOOOOOOOO",
"OOOOOOOOOOOOOOOOOOOOOOOOOOOOOOOOOOOOOOOOOOOOOOOO",
"OOOOOOOOOOOOOOOOOOOOOOOOOOOOOOOOOOOOOOOOOOOOOOOO"
};
