/* XPM */
static char *result[] = {
/* columns rows colors chars-per-pixel */
"48 48 5 1 ",
"  c black",
". c #222034",
"X c #696A6A",
"o c #CBDBFC",
"O c None",
/* pixels */
"OOOOOOOOOOOOOOOOOOOOOOOOOOOOOOOOOOOOOOOOOOOOOOOO",
"OOOOOOOOOOOOOOOOOOOOOOOOOOOOOOOOOOOOOOOOOOOOOOOO",
"OOOOOOOOOOOOOOOOOOOOOOOOOOOOOOOOOOOOOOOOOOOOOOOO",
"OOOOOOOOOOOOOOOOOOOOOOOOOOOOOOOOOOOOOOOOOOOOOOOO",
"OOOOOOOOOOOOOOOOOOOOOOOOOOOOOOOOOOOOOOOOOOOOOOOO",
"OOOOOOOOOOOOOOOOOOOOOOOOOOOOOOOOOOOOOOOOOOOOOOOO",
"OOOOOOOOOOOOOOOOOOOOOOOOOOOOOOOOOOOOOOOOOOOOOOOO",
"OOOOOOOOOOOOOOOOOOOOOOOOOOOOOOOOOOOOOOOOOOOOOOOO",
"OOOOOOOOOOOOOOOOOOOOOOOOOOOOOOOOOOOOOOOOOOOOOOOO",
"OOOOOOOOOOOOOOOOOOOOOOOOOOOOOOOOOOOOOOOOOOOOOOOO",
"OOOOOOOOOOOOOOOOOOOOOOOOOOOOOOOOOOOOOOOOOOOOOOOO",
"OOOOOOOOOOOOOOOOOOOOOOOOOOOOOOOOOOOOOOOOOOOOOOOO",
"OOOOOOOOOOOOOOOOOOOOOOOOOOOOOOOOOOOOOOOOOOOOOOOO",
"OOOOOOOOOOOOOOOOOOOOOOOOOOOOO....OOOOOOOOOOOOOOO",
"OOOOOOOOOOOOOOOOOOOOOOOOOOOO. ....OOOOOOOOOOOOOO",
"OOOOOOOOOOOOOOOOOOOOOOOOOOO.   o...XXOOOOOOOOOOO",
"OOOOOOOOOOOOOOOOOOOOOOOOOO.   .. XXXXXOOOOOOOOOO",
"OOOOOOOOOOOOOOOOOOOOOOOO...   .  .....OOOOOOOOOO",
"OOOOOOOOOOOOOOOOOOOOOO..   .    ..OOOOOOOOOOOOOO",
"OOOOOOOOOOOOOOOOOOOOO.   .. .   .OOOOOOOOOOOOOOO",
"OOOOOOOOOOOOOOOOOOOO. ...    . .OOOOOOOOOOOOOOOO",
"OOOOOOOOOOOOOOOOOOO.          .OOOOOOOOOOOOOOOOO",
"OOOOOOOOOOOOOOOOOOO.          .OOOOOOOOOOOOOOOOO",
"OOOOOOOOOOOOOOOOOO.    .  .  .OOOOOOOOOOOOOOOOOO",
"OOOOOOOOOOOOOOOOO.    .  .  . OOOOOOOOOOOOOOOOOO",
"OOOOOOOOOOOOOOOO.    .......  OOOOOOOOOOOOOOOOOO",
"OOOOOOOOOOOOOOO.       ...   OOOOOOOOOOOOOOOOOOO",
"OOOOOOOOOOOOOO. .  .    .   OOOOOOOOOOOOOOOOOOOO",
"OOOOOOOOOOOOO. ..  .  ...XOOOOOOOOOOOOOOOOOOOOOO",
"OOOOOOOOOOOOO.. . .   OO..XOOOOOOOOOOOOOOOOOOOOO",
"OOOOOOOOOOOO.  . .   XOOOO.XOOOOOOOOOOOOOOOOOOOO",
"OOOOOOOOOOOO. .  ..OO XXOOO XOOOOOOOOOOOOOOOOOOO",
"OOOOOOOOOOOO.....OOOX OOOO.  X.OOOOOOOOOOOOOOOOO",
"OOOOOOOOOOOOOOOOOOOOOOOOOOOOOO.OOOOOOOOOOOOOOOOO",
"OOOOOOOOOOOOOOOOOOOOOOOOOOOOOOOOOOOOOOOOOOOOOOOO",
"OOOOOOOOOOOOOOOOOOOOOOOOOOOOOOOOOOOOOOOOOOOOOOOO",
"OOOOOOOOOOOOOOOOOOOOOOOOOOOOOOOOOOOOOOOOOOOOOOOO",
"OOOOOOOOOOOOOOOOOOOOOOOOOOOOOOOOOOOOOOOOOOOOOOOO",
"OOOOOOOOOOOOOOOOOOOOOOOOOOOOOOOOOOOOOOOOOOOOOOOO",
"OOOOOOOOOOOOOOOOOOOOOOOOOOOOOOOOOOOOOOOOOOOOOOOO",
"OOOOOOOOOOOOOOOOOOOOOOOOOOOOOOOOOOOOOOOOOOOOOOOO",
"OOOOOOOOOOOOOOOOOOOOOOOOOOOOOOOOOOOOOOOOOOOOOOOO",
"OOOOOOOOOOOOOOOOOOOOOOOOOOOOOOOOOOOOOOOOOOOOOOOO",
"OOOOOOOOOOOOOOOOOOOOOOOOOOOOOOOOOOOOOOOOOOOOOOOO",
"OOOOOOOOOOOOOOOOOOOOOOOOOOOOOOOOOOOOOOOOOOOOOOOO",
"OOOOOOOOOOOOOOOOOOOOOOOOOOOOOOOOOOOOOOOOOOOOOOOO",
"OOOOOOOOOOOOOOOOOOOOOOOOOOOOOOOOOOOOOOOOOOOOOOOO",
"OOOOOOOOOOOOOOOOOOOOOOOOOOOOOOOOOOOOOOOOOOOOOOOO"
};
