/* XPM */
static char *result[] = {
/* columns rows colors chars-per-pixel */
"48 48 5 1 ",
"  c black",
". c #222034",
"X c #696A6A",
"o c #CBDBFC",
"O c None",
/* pixels */
"OOOOOOOOOOOOOOOOOOOOOOOOOOOOOOOOOOOOOOOOOOOOOOOO",
"OOOOOOOOOOOOOOOOOOOOOOOOOOOOOOOOOOOOOOOOOOOOOOOO",
"OOOOOOOOOOOOOOOOOOOOOOOOOOOOOOOOOOOOOOOOOOOOOOOO",
"OOOOOOOOOOOOOOOOOOOOOOOOOOOOOOOOOOOOOOOOOOOOOOOO",
"OOOOOOOOOOOOOOOOOOOOOOOOOOOOOOOOOOOOOOOOOOOOOOOO",
"OOOOOOOOOOOOOOOOOOOOOOOOOOOOOOOOOOOOOOOOOOOOOOOO",
"OOOOOOOOOOOOOOOOOOOOOOOOOOOOOOOOOOOOOOOOOOOOOOOO",
"OOOOOOOOOOOOOOOOOOOOOOOOOOOOOOOOOOOOOOOOOOOOOOOO",
"OOOOOOOOOOOOOOOOOOOOOOOOOOOOOOOOOOOOOOOOOOOOOOOO",
"OOOOOOOOOOOOOOOOOOOOOOOOOOOOOOOOOOOOOOOOOOOOOOOO",
"OOOOOOOOOOOOOOOOOOOOOOOOOOOOOOOOOOOOOOOOOOOOOOOO",
"OOOOOOOOOOOOOOOOOOOOOOOOOOOOOOOOOOOOOOOOOOOOOOOO",
"OOOOOOOOOOOOOOOOOOOOOOOOOOOOOOOOOOOOOOOOOOOOOOOO",
"OOOOOOOOOOOOOOOOOOOOOOOOOOOO....OOOOOOOOOOOOOOOO",
"OOOOOOOOOOOOOOOOOOOOOOOOOOO. ....OOOOOOOOOOOOOOO",
"OOOOOOOOOOOOOOOOOOOOOOOOOO.   o...XXOOOOOOOOOOOO",
"OOOOOOOOOOOOOOOOOOOOOOOOO.   .. XXXXXOOOOOOOOOOO",
"OOOOOOOOOOOOOOOOOOOOOOO...   .  .....OOOOOOOOOOO",
"OOOOOOOOOOOOOOOOOOOOO..   .    ..OOOOOOOOOOOOOOO",
"OOOOOOOOOOOOOOOOOOOO.   .. .   .OOOOOOOOOOOOOOOO",
"OOOOOOOOOOOOOOOOOOO. ...    . .OOOOOOOOOOOOOOOOO",
"OOOOOOOOOOOOOOOOOO.          .OOOOOOOOOOOOOOOOOO",
"OOOOOOOOOOOOOOOOOO.          .OOOOOOOOOOOOOOOOOO",
"OOOOOOOOOOOOOOOOO.    .  .  .OOOOOOOOOOOOOOOOOOO",
"OOOOOOOOOOOOOOOO.    .  .  . OOOOOOOOOOOOOOOOOOO",
"OOOOOOOOOOOOOOO.    .......  OOOOOOOOOOOOOOOOOOO",
"OOOOOOOOOOOOOO.       ...   OOOOOOOOOOOOOOOOOOOO",
"OOOOOOOOOOOOO. .  .    .   OOOOOOOOOOOOOOOOOOOOO",
"OOOOOOOOOOOO. ..  .  ..O.XOOOOOOOOOOOOOOOOOOOOOO",
"OOOOOOOOOOOO.. . .   OOO..XOOOOOOOOOOOOOOOOOOOOO",
"OOOOOOOOOOO.  . .    XOOOO.XOOOOOOOOOOOOOOOOOOOO",
"OOOOOOOOOOO. .  ..OOO XXOOO XOOOOOOOOOOOOOOOOOOO",
"OOOOOOOOOOO.....OOOOX OOOO.  X.OOOOOOOOOOOOOOOOO",
"OOOOOOOOOOOOOOOOOOOOOOOOOOOOOO.OOOOOOOOOOOOOOOOO",
"OOOOOOOOOOOOOOOOOOOOOOOOOOOOOOOOOOOOOOOOOOOOOOOO",
"OOOOOOOOOOOOOOOOOOOOOOOOOOOOOOOOOOOOOOOOOOOOOOOO",
"OOOOOOOOOOOOOOOOOOOOOOOOOOOOOOOOOOOOOOOOOOOOOOOO",
"OOOOOOOOOOOOOOOOOOOOOOOOOOOOOOOOOOOOOOOOOOOOOOOO",
"OOOOOOOOOOOOOOOOOOOOOOOOOOOOOOOOOOOOOOOOOOOOOOOO",
"OOOOOOOOOOOOOOOOOOOOOOOOOOOOOOOOOOOOOOOOOOOOOOOO",
"OOOOOOOOOOOOOOOOOOOOOOOOOOOOOOOOOOOOOOOOOOOOOOOO",
"OOOOOOOOOOOOOOOOOOOOOOOOOOOOOOOOOOOOOOOOOOOOOOOO",
"OOOOOOOOOOOOOOOOOOOOOOOOOOOOOOOOOOOOOOOOOOOOOOOO",
"OOOOOOOOOOOOOOOOOOOOOOOOOOOOOOOOOOOOOOOOOOOOOOOO",
"OOOOOOOOOOOOOOOOOOOOOOOOOOOOOOOOOOOOOOOOOOOOOOOO",
"OOOOOOOOOOOOOOOOOOOOOOOOOOOOOOOOOOOOOOOOOOOOOOOO",
"OOOOOOOOOOOOOOOOOOOOOOOOOOOOOOOOOOOOOOOOOOOOOOOO",
"OOOOOOOOOOOOOOOOOOOOOOOOOOOOOOOOOOOOOOOOOOOOOOOO"
};
