/* XPM */
static char *result[] = {
/* columns rows colors chars-per-pixel */
"48 48 5 1 ",
"  c black",
". c #222034",
"X c #696A6A",
"o c #CBDBFC",
"O c None",
/* pixels */
"OOOOOOOOOOOOOOOOOOOOOOOOOOOOOOOOOOOOOOOOOOOOOOOO",
"OOOOOOOOOOOOOOOOOOOOOOOOOOOOOOOOOOOOOOOOOOOOOOOO",
"OOOOOOOOOOOOOOOOOOOOOOOOOOOOOOOOOOOOOOOOOOOOOOOO",
"OOOOOOOOOOOOOOOOOOOOOOOOOOOOOOOOOOOOOOOOOOOOOOOO",
"OOOOOOOOOOOOOOOOOOOOOOOOOOOOOOOOOOOOOOOOOOOOOOOO",
"OOOOOOOOOOOOOOOOOOOOOOOOOOOOOOOOOOOOOOOOOOOOOOOO",
"OOOOOOOOOOOOOOOOOOOOOOOOOOOOOOOOOOOOOOOOOOOOOOOO",
"OOOOOOOOOOOOOOOOOOOOOOOOOOOOOOOOOOOOOOOOOOOOOOOO",
"OOOOOOOOOOOOOOOOOOOOOOOOOOOOOOOOOOOOOOOOOOOOOOOO",
"OOOOOOOOOOOOOOOOOOOOOOOOOOOOOOOOOOOOOOOOOOOOOOOO",
"OOOOOOOOOOOOOOOOOOOOOOOOOOOOOOOOOOOOOOOOOOOOOOOO",
"OOOOOOOOOOOOOOOOOOOOOOOOOOOOOOOOOOOOOOOOOOOOOOOO",
"OOOOOOOOOOOOOOOOOOOOO..OOOOOOOOOOOOOOOOOOOOOOOOO",
"OOOOOOOOOOOOOOOOOOO... .OO..OOOOOOOOOOOOOOOOOOOO",
"OOOOOOOOOOOOOOOOO....   O...OOOOOOOOOOOOOOOOOOOO",
"OOOOOOOOOO....  .       ..  .OOOOOOOOOOOOOOOOOOO",
"OOOOOOO....             .   .OOOOOOOOOOOOOOOOOOO",
"OOOOOOO..                .   .OOOOOOOOOOOOOOOOOO",
"OOOOOOO.      .           .  .OOOOOOOOOOOOOOOOOO",
"OOOOOOO.....              .  .OO...OOOOOOOOOOOOO",
"OOOOOOOOO.             .   .....  ..OOOOOOOOOOOO",
"OOOOOOOOO.          .   .  ....    ..OOOOOOOOOOO",
"OOOOOOOOO.. ..        .  .    .   o...OOOOOOOOOO",
"OOOOOOOOOOO..OO OO..         . .    XXXXOOOOOOOO",
"OOOOOOOOOOOOOOOOO..       .  . .   ...XXOOOOOOOO",
"OOOOOOOOOOOOOOO...          .    ...OOOOOOOOOOOO",
"OOOOOOOOO. ....          . .    .OOOOOOOOOOOOOOO",
"OOOOOOOOOO.    .       .     OOOOOOOOOOOOOOOOOOO",
"OOOOOOOOOO..   ...   ..    OOOOOOOOOOOOOOOOOOOOO",
"OOOOOOOOOOOO...O. .......OOOOOOOOOOOOOOOOOOOOOOO",
"OOOOOOOOOOOOOOOO.  O...OOOOOOOOOOOOOOOOOOOOOOOOO",
"OOOOOOOOOOOOOOOOOO OO. OOOOOOOOOOOOOOOOOOOOOOOOO",
"OOOOOOOOOOOOOOOOOO  OO    OOOOOOOOOOOOOOOOOOOOOO",
"OOOOOOOOOOOOOOOOOO O OOO O OOOOOOOOOOOOOOOOOOOOO",
"OOOOOOOOOOOOOOOOOOOOOOOOOOOOOOOOOOOOOOOOOOOOOOOO",
"OOOOOOOOOOOOOOOOOOOOOOOOOOOOOOOOOOOOOOOOOOOOOOOO",
"OOOOOOOOOOOOOOOOOOOOOOOOOOOOOOOOOOOOOOOOOOOOOOOO",
"OOOOOOOOOOOOOOOOOOOOOOOOOOOOOOOOOOOOOOOOOOOOOOOO",
"OOOOOOOOOOOOOOOOOOOOOOOOOOOOOOOOOOOOOOOOOOOOOOOO",
"OOOOOOOOOOOOOOOOOOOOOOOOOOOOOOOOOOOOOOOOOOOOOOOO",
"OOOOOOOOOOOOOOOOOOOOOOOOOOOOOOOOOOOOOOOOOOOOOOOO",
"OOOOOOOOOOOOOOOOOOOOOOOOOOOOOOOOOOOOOOOOOOOOOOOO",
"OOOOOOOOOOOOOOOOOOOOOOOOOOOOOOOOOOOOOOOOOOOOOOOO",
"OOOOOOOOOOOOOOOOOOOOOOOOOOOOOOOOOOOOOOOOOOOOOOOO",
"OOOOOOOOOOOOOOOOOOOOOOOOOOOOOOOOOOOOOOOOOOOOOOOO",
"OOOOOOOOOOOOOOOOOOOOOOOOOOOOOOOOOOOOOOOOOOOOOOOO",
"OOOOOOOOOOOOOOOOOOOOOOOOOOOOOOOOOOOOOOOOOOOOOOOO",
"OOOOOOOOOOOOOOOOOOOOOOOOOOOOOOOOOOOOOOOOOOOOOOOO"
};
