/* XPM */
static char *result[] = {
/* columns rows colors chars-per-pixel */
"48 48 5 1 ",
"  c black",
". c #222034",
"X c #696A6A",
"o c #CBDBFC",
"O c None",
/* pixels */
"OOOOOOOOOOOOOOOOOOOOOOOOOOOOOOOOOOOOOOOOOOOOOOOO",
"OOOOOOOOOOOOOOOOOOOOOOOOOOOOOOOOOOOOOOOOOOOOOOOO",
"OOOOOOOOOOOOOOOOOOOOOOOOOOOOOOOOOOOOOOOOOOOOOOOO",
"OOOOOOOOOOOOOOOOOOOOOOOOOOOOOOOOOOOOOOOOOOOOOOOO",
"OOOOOOOOOOOOOOOOOOOOOOOOOOOOOOOOOOOOOOOOOOOOOOOO",
"OOOOOOOOOOOOOOOOOOOOOOOOOOOOOOOOOOOOOOOOOOOOOOOO",
"OOOOOOOOOOOOOOOOOOOOOOOOOOOOOOOOOOOOOOOOOOOOOOOO",
"OOOOOOOOOOOOOOOOOOOOOOOOOOOOOOOOOOOOOOOOOOOOOOOO",
"OOOOOOOOOOOOOOOOOOOOOOOOOOOOOOOOOOOOOOOOOOOOOOOO",
"OOOOOOOOOOOOOOOOOOOOOOOOOOOOOOOOOOOOOOOOOOOOOOOO",
"OOOOOOOOOOOOOOOOOOOOOOOOOOOOOOXXXOOOOOOOOOOOOOOO",
"OOOOOOOOOOOOOOOOOOOOOOOOOOOO..XX.OOOOOOOOOOOOOOO",
"OOOOOOOOOOOOOOOOOOOOOOOOO.....X..OOOOOOOOOOOOOOO",
"OOOOOOOOOOOOOOOOOOOOOOOO..o..X..OOOOOOOOOOOOOOOO",
"OOOOOOOOOOOOOOOOOOOOOOOO. .....OOOOOOOOOOOOOOOOO",
"OOOOOOOOOOOOOOOOOOOOOOOO      .OOOOOOOOOOOOOOOOO",
"OOOOOOOOOOOOOOOOOOOOOOO.     ..OOOOOOOOOOOOOOOOO",
"OOOOOOOOOOOOOOOOOOOOOOO..    .OOOOOOOOOOOOOOOOOO",
"OOOOOOOOOOOOOOOOOOOOO..  .  ..OOOOOOOOOOOOOOOOOO",
"OOOOOOOOOOOOOOOOOOOO.   ..  ...OOOOOOOOOOOOOOOOO",
"OOOOOOOOOOOOOOOOOOO. ...      .OOOOOOOOOOOOOOOOO",
"OOOOOOOOOOOOOOOOOO.          .OOOOOOOOOOOOOOOOOO",
"OOOOOOOOOOOOOOOOOO.          .OOOOOOOOOOOOOOOOOO",
"OOOOOOOOOOOOOOOOO.    .  .  .OOOOOOOOOOOOOOOOOOO",
"OOOOOOOOOOOOOOOO.    .  .  . OOOOOOOOOOOOOOOOOOO",
"OOOOOOOOOOOOOOO.    .......  OOOOOOOOOOOOOOOOOOO",
"OOOOOOOOOOOOOO.       ...   OOOOOOOOOOOOOOOOOOOO",
"OOOOOOOOOOOOO. .  .    .   OOOOOOOOOOOOOOOOOOOOO",
"OOOOOOOOOOOO. ..  .  ...XOOOOOOOOOOOOOOOOOOOOOOO",
"OOOOOOOOOOOO.. . .   OO..XOOOOOOOOOOOOOOOOOOOOOO",
"OOOOOOOOOOO.  . .    XOOO.XOOOOOOOOOOOOOOOOOOOOO",
"OOOOOOOOOOO. .  ..OOO XXOO XOOOOOOOOOOOOOOOOOOOO",
"OOOOOOOOOOO.....OOOOX OOO.  X.OOOOOOOOOOOOOOOOOO",
"OOOOOOOOOOOOOOOOOOOOOOOOOOOOO.OOOOOOOOOOOOOOOOOO",
"OOOOOOOOOOOOOOOOOOOOOOOOOOOOOOOOOOOOOOOOOOOOOOOO",
"OOOOOOOOOOOOOOOOOOOOOOOOOOOOOOOOOOOOOOOOOOOOOOOO",
"OOOOOOOOOOOOOOOOOOOOOOOOOOOOOOOOOOOOOOOOOOOOOOOO",
"OOOOOOOOOOOOOOOOOOOOOOOOOOOOOOOOOOOOOOOOOOOOOOOO",
"OOOOOOOOOOOOOOOOOOOOOOOOOOOOOOOOOOOOOOOOOOOOOOOO",
"OOOOOOOOOOOOOOOOOOOOOOOOOOOOOOOOOOOOOOOOOOOOOOOO",
"OOOOOOOOOOOOOOOOOOOOOOOOOOOOOOOOOOOOOOOOOOOOOOOO",
"OOOOOOOOOOOOOOOOOOOOOOOOOOOOOOOOOOOOOOOOOOOOOOOO",
"OOOOOOOOOOOOOOOOOOOOOOOOOOOOOOOOOOOOOOOOOOOOOOOO",
"OOOOOOOOOOOOOOOOOOOOOOOOOOOOOOOOOOOOOOOOOOOOOOOO",
"OOOOOOOOOOOOOOOOOOOOOOOOOOOOOOOOOOOOOOOOOOOOOOOO",
"OOOOOOOOOOOOOOOOOOOOOOOOOOOOOOOOOOOOOOOOOOOOOOOO",
"OOOOOOOOOOOOOOOOOOOOOOOOOOOOOOOOOOOOOOOOOOOOOOOO",
"OOOOOOOOOOOOOOOOOOOOOOOOOOOOOOOOOOOOOOOOOOOOOOOO"
};
