/* XPM */
static char *_4d3d356ba1f4838cbb3a34d2fd680edxyJHAt3fH9KCTr2X[] = {
/* columns rows colors chars-per-pixel */
"64 64 253 2 ",
"   c #030301",
".  c #0A0301",
"X  c #0B0A04",
"o  c #06090B",
"O  c #130200",
"+  c #170B04",
"@  c #191309",
"#  c #171816",
"$  c #081113",
"%  c #240C00",
"&  c #271607",
"*  c #351A09",
"=  c #261C14",
"-  c #371C13",
";  c #29241B",
":  c #382718",
">  c #392B12",
",  c #101D22",
"<  c #182830",
"1  c #282827",
"2  c #362B25",
"3  c #3A3328",
"4  c #282E36",
"5  c #273237",
"6  c #363437",
"7  c #241F21",
"8  c #481C09",
"9  c #462B16",
"0  c #4B321C",
"q  c #44361A",
"w  c #532D17",
"e  c #60361B",
"r  c #463626",
"t  c #583926",
"y  c #443631",
"u  c #653926",
"i  c #713F2E",
"p  c #57452A",
"a  c #494338",
"s  c #584936",
"d  c #554A33",
"f  c #67442C",
"g  c #664A36",
"h  c #754B37",
"j  c #65563B",
"k  c #78563C",
"l  c #6E4E2D",
"z  c #77663C",
"x  c #353C43",
"c  c #233A45",
"v  c #1F3741",
"b  c #4D3F4B",
"n  c #354448",
"m  c #394A56",
"M  c #2C4550",
"N  c #3A5868",
"B  c #4A4847",
"V  c #544B47",
"C  c #5A554A",
"Z  c #495358",
"A  c #595856",
"S  c #484D51",
"D  c #665947",
"F  c #775946",
"G  c #635B56",
"H  c #694F40",
"J  c #5D6059",
"K  c #78674B",
"L  c #6A6558",
"P  c #766956",
"I  c #7C715A",
"U  c #776B48",
"Y  c #525B66",
"T  c #5C6767",
"R  c #4C6672",
"E  c #696866",
"W  c #746B68",
"Q  c #787368",
"!  c #656976",
"~  c #776D76",
"^  c #687577",
"/  c #787877",
"(  c #6D736F",
")  c #655F63",
"_  c #83583E",
"`  c #905A3E",
"'  c #816C3F",
"]  c #865C49",
"[  c #895F51",
"{  c #88644B",
"}  c #97644C",
"|  c #89754B",
" . c #896855",
".. c #946A56",
"X. c #87755A",
"o. c #97745A",
"O. c #91794D",
"+. c #A8775C",
"@. c #A67157",
"#. c #8B7D6B",
"$. c #857866",
"%. c #997965",
"&. c #867B77",
"*. c #8A7669",
"=. c #A87B66",
"-. c #B17D67",
";. c #7B827E",
":. c #978558",
">. c #AF815E",
",. c #8C826A",
"<. c #98856B",
"1. c #8B8375",
"2. c #938574",
"3. c #9B8D7B",
"4. c #978977",
"5. c #9C917C",
"6. c #9F9162",
"7. c #AC846B",
"8. c #A8886A",
"9. c #B4836C",
"0. c #BC8B6B",
"q. c #B68668",
"w. c #AC8B73",
"e. c #A68A76",
"r. c #B88B75",
"t. c #A7947A",
"y. c #B79478",
"u. c #AF926C",
"i. c #C58D74",
"p. c #CA937B",
"a. c #C69579",
"s. c #D2987D",
"d. c #C2906A",
"f. c #697B85",
"g. c #757888",
"h. c #557580",
"j. c #817A89",
"k. c #7B8588",
"l. c #778994",
"z. c #6A8A97",
"x. c #7C97A4",
"c. c #868787",
"v. c #988C84",
"b. c #9D9384",
"n. c #999589",
"m. c #889599",
"M. c #979998",
"N. c #838D95",
"B. c #A39483",
"V. c #A49A8B",
"C. c #AB9C8B",
"Z. c #A89886",
"A. c #B89986",
"S. c #A99D94",
"D. c #AA9389",
"F. c #9DA197",
"G. c #ADA18E",
"H. c #B2A38D",
"J. c #BBA48D",
"K. c #ACA394",
"L. c #AAA499",
"P. c #B3A494",
"I. c #BAAB95",
"U. c #B4AB9B",
"Y. c #BBAC9B",
"T. c #B7A796",
"R. c #BDB19D",
"E. c #B3B19D",
"W. c #889BA4",
"Q. c #949CA7",
"!. c #97A4A9",
"~. c #98ABB7",
"^. c #99B3BC",
"/. c #8DA9B3",
"(. c #A7A9AA",
"). c #B7ACA4",
"_. c #BDB3A3",
"`. c #B9B5A9",
"'. c #A7B6BA",
"]. c #B8B8B6",
"[. c #A7AEB2",
"{. c #CB9B84",
"}. c #C79883",
"|. c #D29D88",
" X c #CDA38A",
".X c #D6A38A",
"XX c #C5AB98",
"oX c #DAA994",
"OX c #C2B39D",
"+X c #CCB19D",
"@X c #D6B29F",
"#X c #E4AD95",
"$X c #C2B4A3",
"%X c #C4BBAB",
"&X c #CBBCAB",
"*X c #C5B7A6",
"=X c #D3BBA9",
"-X c #C4BEB1",
";X c #C9BDB3",
":X c #CEBAAE",
">X c #E3B7A3",
",X c #B8C2BA",
"<X c #B7C0AF",
"1X c #CBC1AE",
"2X c #D5C3AD",
"3X c #CCC3B3",
"4X c #C8C6B9",
"5X c #D3C4B3",
"6X c #D4CBBB",
"7X c #D8C9B7",
"8X c #D7D0BE",
"9X c #E3CEBB",
"0X c #E4D2BD",
"qX c #99BAC8",
"wX c #99BCD2",
"eX c #8FB4CE",
"rX c #A5BAC7",
"tX c #AABBCF",
"yX c #9DC2CC",
"uX c #9DC7D7",
"iX c #A3C3CC",
"pX c #ACC3C7",
"aX c #B6C5C9",
"sX c #A4C3D4",
"dX c #A4CADC",
"fX c #ACCCDC",
"gX c #A9C8D6",
"hX c #B5CAD6",
"jX c #AAD1DC",
"kX c #B7D2DC",
"lX c #AACEE2",
"zX c #A5CCE2",
"xX c #B1CDE1",
"cX c #ACD3E4",
"vX c #AAD5E8",
"bX c #B2D4E4",
"nX c #B6D7E8",
"mX c #BDDDF2",
"MX c #C9CBC3",
"NX c #D6CCC2",
"BX c #DDD3C4",
"VX c #D9D5C9",
"CX c #D4D7DA",
"ZX c #C7D1D2",
"AX c #E5D8C7",
"SX c #E9DDCF",
"DX c #E7E2D7",
"FX c #EFE6D4",
"GX c #CFDBE3",
"HX c #D7E5F0",
"JX c #F9FAF9",
"KX c #EDEDEC",
"LX c #E1DEDD",
/* pixels */
"qXnXfXbXnXvXvXvXvXlXvXcXcXmXlXnXjXjXbXcXvXnXsXbXfXkXhXaXaX,X(.E A J ; + * t : ; W / S k.ZXhXR R wXwX/.R Z E E / &.E ~ M.].CXCXHX",
"x.fXfXbXbXlXvXvXvXvXvXnXnXbXx.qXbXiXgXbXbXbXnXnXnXhXhXGXZX'.N.c.E.L   & 2 : & 3 W c.x Q.'.hXl.N qX/./.f.T E E E W W ) E MXCXCXGX",
"f.fXbXbXnXlXvXnXlXlXvXsXsXsXR qXHX^./.nXiXiXrXnXhXkXGX!.T 4 #   L 4XG @ 3 : = y Q ( E '.'.hXm.n ^.!.W.^ A A G A E W E A LXKXKXCX",
"f.nXbXcXbXvXvXvXvXvXfXiXR M < m f.W.Q.f.R ^.GXhXGXZX!   $     X   L.BXL : : 3 y L ( ^ aX[.'.~.T !.!.N.J V C V V G C A / LXJXLXKX",
"h.nXjXjXbXvXcXcXdXfXgX/.c 5 m < x ^ 4 x S '.CXZXGXZ o   X X X X   Q BX6XK.2.L Q &./ ;.m.k.k.k.^ c.m.c.E E Q W W W E E Q ].JXKXJX",
"R bXjXcXvXvXcXjXdXgXiXR < m Z 4 6 7 1 Z c.ZXZXCX(   O = @ @ O O O : 6X6X6X&X1.L E J ^ T T ! T ^ T T E ( E W Q W W / / E ].JXKXJX",
"R nXjXbXcXcXvXdXdXsXqXR $ 4 T 4 # 4 1 M.KXDXNX`.@ + : & : r - - & & T.7XBX6X6XF.n.F.N.!.m.W.l.l.N.k.k.N.c.k.c.k.c.c.M.[.KXJXJXJX",
"R bXfXcXdXvXvXlXfXsXqXf.4 x S 4 6 1 M.KXVXBXAXH > g g {  . .[ F g 0 %.9X6X6X3XVXMX].aXaXhXhXgXgXrXaXpXpXhXaXaXaXaXaXhXaXCXLXJXJX",
"N nXlXvXcXlXcXlXfXsXrXf.4 6 6 B # 1.DXVXBXAXC.9 f k  ...+.7.9.y.7. .F 2X2X3X6X4XMXaXpXaXaXkXfXfXfXsXsXgXkXsXgXgXgXfXhXpXZXJXKXHX",
"N wXnXsXlXnXnXnXsXfXhXl.4 S $ 7 ( ].LXVXSX5X0 t l _ o.0.p.s.p.i.y.w.F e.0X1X3X4X4XMX'.kXkXtXfXfXzXzXcXdXlXuXdXdXdXdXbXgXhXJXJXKX",
"N xXfXlXcXnXdXuXlXsXW.m 4 S 7 # `.MXDXBXAXK 9 l _ 8.0.s.s.i.i.0.a.y.w.K OX5X6X<XMXMXaX'.hXhXbXlXuXzXzXdXcXcXcXzXlXdXdXsXnXHXHXJX",
"m rXbXbXcXdXlX/.N N m x x 6 7 V MXNXSXFXG.> p f o. X.Xi.p.i.i.s.a.}. X%.<.AX%X3X4X4XZX(.aXkXhXfXlXlXcXdXcXbXdXuXzXzXsXgXnXhXrXhX",
"M qXnXsXvXbXuXsXz.c 5 5 x $ # n.4X4XAXSX4.9 g ] }..X.Xi.p.s.i.p.{.y.o.g 9 I AX3X3X6XNX,X'.pXhXnXkXfXbXkXgXfXgXfXgXfXxXxXhXGXgXhX",
"M /.kXbXsXcXcXgXiXx.m Z 1 6 y ).6XFXAXFXP t g A.>X{..X|.p.p.i.0.r.] f 9 9 & t.6X5X6X6X4XF.aX'.'.hX'.pXaX'.pXaXhXgXhXhXgXtXhXtXhX",
"v ~.kXfXnXyXjXyXiXhXm.T 6 # / 6X%XAXSXAXX.0 ..A.=.-.r.{.{.{.{.{.r...%.8.t.X.> 2X2X2X8X8XL.`.M.A ;.T ^ / T ^ ^ ! f.f.l.l.W.W.l.Q.",
"v W.kXjXgXjXgXgXiXl.^ n n X Q NX3XSXAXSXP 0 0 * 9 F ..7..X X}.}.r.}.A.e.<.e.g j 0X7X2XBX-Xn.].A E A / 1.L / / ( !.k.N.^ f.f.l.l.",
"< W.kXgXjXjXsXgX^.M 5 S 6 # S.;X6XSXFX1Xr % t  .e.%.w.A.}.r.p.{.{.r.o. .o. .K 0 %.0X=X7X6Xv.,Xn.a Q Q 3.s L I &.VXk.! m.f.f.aXQ.",
"c x.jXjXdXdXyXgX^.n n Z S # S.;X-XVXSXY.O p XXXXA.e.A.y. X{.p.p.a.9.k k g F h 0 0 +X9X2X8XK.L.-Xa C Q I L d C L n.~ ~ Q.Q.g.!.Q.",
"x.rXjXjXuXuXsXhX~.Y Z S S ; `.].4X3XFXP % %.+X%.%...{ %.r.oXoXp.{...k ..e { ..t %  .9X=XAXU.n.4XQ 2 &.n.W y y V E ~ ~ g.j.Y ! g.",
"xXfXjXuXuXuXwXrXg.Z 6 1 4 1 `.).4XBXBXr t 7.w.o.k t %.k r.oX|.p.r.9.] _ { =.=.7.f 9 +X7X7X5X#.`.;X2 G S.Q V c.W V G j.g.g.! ! g.",
"fXsXdXuXuXuXtX~.) B 1 1 2 ; `.].VXFXY.O t %.k ] } u .._ r.oXp.i.9.9.o.} @.+.-.9.=.h  .SX5X8X4.n.VXG 3 c.V ) &.&.S.&.v.~ ~ Z Z ! ",
"xXdXdXuXuXgX^.g.A b y 2 y 1 -X4X4XFX#.: u h =.i.9.} _ =.}.|.}.r.9.r.9.9.+.+.@.+.i.7.[ =X9XAXb.4.;Xv.; 1.W E &.&.).D.v.W ~ E ! N.",
"sXwXuXuXyXiXN.B y y y 2 y y 3X%X3XKXD * t r..Xp.i.+.a.}.oX}.i.r.9.r.9.+.@.+.q.i.r. X=.w.0X5X_.Q %X_.: G S.A (.c.&.v.T.D.L.(.(.[.",
"sXsXsXyXyXgXQ.A B V B G G P 8X&XNX6X: 9 =..Xp.i.p.i.i.i.{.{.}.r.9.r.r.@.@.@.-.i.p.a.{.=.=X0X*XL T.5XD 3 G V C E W P #.X.L E ( / ",
"sXsXwXsXqXiXaXm.k.g./ / E V.SX$XNXU.% f >X|.s.s.s.p.-.} 9.{.}.-.9.} +.+.` } -.i..Xp.oXw.XX7X5XI Z.$XK.C B L L C D D P D L L E E ",
"sXdXwXuXuXqXpXpX'.'.'.[.m.`.AX:X;XD.O [ >X.X.X.Xs.p.-.h r.i i o.@.i } @.-.@.} -.i..X.XA.e.9X5X#.$.*X_.L a / E W E L I L L W ( / ",
"sXfXuXwXuXwXqXiXyXiXqXrX'.CXAX:X_.v.O %.>X#X#X#X.Xp.9...-.[ -.......} =.0.-.@.@.q..X{. Xo.=XAX3.P G.4XC 1 A E T E E ( / ;.M.M.[.",
"yXqXwXeXwXwXqX^.^.qXwXqXrXCX6XBXU.B.O %.@X#X#XoXp.p.+.}.}.] h h ] 8 u ..9.0.+._ -.i.}. X%.<.SXB.s V.4XM.; Z M.m.m.m.!.!.!.(.(.(.",
"gXqXqXwXuXwXqXyXqXwXwXwXtXGX].NX_.C.+  .@XoXoX.Xp.-.=.oX9.w 8 i [ u 8 u h ..{ h { 9.}.}.w.h 0XC.s ).-XNXy B [.!.W.W.^.~.rX[.[.(.",
"~.pXrXqXdXyXqXiXrXqXwXqXhXHX`.3X3XU.* F >X.X|.{.9...} %.] u h  .]  .] ..k e e 8 e =.r.r.y.t +XOXs L.`.4Xc.1 !.pX^.qXyXqXgXrXtX[.",
";.[.'.^.qXrX'.'.'.^.tXtXhXZXE.*X6XY.0 t oX X}.}.9._ h k F F F ....=.=.8 k l k f e o.8.w.w.p D.*Xs K._.3XL.3 T pXiXuXuXqXiXrXrX(.",
"v.(.'.rX^.^.pX'.[.!.rXrXaXCXE.U.6X$Xt 0 A. X}.i.+.u w w h u w  .w.A.{ h ..7.y.+._ ..8.r.e.g <.$Xa V.L.3X-Xn.T [.pXgXyXyXiXpX].(.",
"e.D.].'.^.rX!.;.( 1.[.].ZXCXL.K.;XAXF * w.}.}.a.7.e 8 t F ..i =.-.....=.=.7.y.9.] { w.7.y.p <.T.r V.U.;XU.).4X,X,X,XpXpX'.].`.S.",
"D.4.).[.'.k.E M.4XVXDXVXLXMXU.V.S.7XI.9 o.y.9.7.=.h f =.=.=...[ ] k k _ ..9.r.7.h f %.=.e.t 4.t.q 4.S.%X).n.U.`.<X,XMX,X].%XT.C.",
"A.D.S.c.A N.,XDXVXFXSXVXNXNXK.V.B.*X=Xg F }.9.o.{ { ] r.7.[ h u w w e h ..7.=.+.l w { o.%.r C.F p 4.S.$X$X1.n.).4X,X4X,XMX5XP.D.",
"}.A.S.v.7 M.JXDXBXAXBX3X-XSXV.5.1.C.7Xe.t A.7...{ F h o.=.%.F f u u h ..7.7.o...h w F o. .p Y.: s 4.T._.&Xb.4.G.4X4X4X4XNX&XA.t.",
"i.=.D.&.# L.KXBXBXBXSX_.6XBXU.3.2.4.7X$Xt ..%. . .t f  .%.w.%.{ ] ..%.=.o...o.k f w k %.p  .B.- s #.P.Y.$XP.#.b.%X6X3X4X:XA.y.A.",
"q.=.y.F + 4XKXDX8XAXAX_.5X6X*XV.4.#.T.2X .0 o.o.F t 0 f F { .. .[ ....%.F h { h 0 9 F *.r B.D r D $.P.$XY.C.I 5.R.6X3X5X*Xe.y.a.",
"q.-.r.%.p BXAX6XAXSX6XR.*X5X_.T.Q Q B.7XOX9 g X.F p & * t g g g F ] [ ..F g j g - 0 F H H Z.r d L *.P.*XT.B.X.,.Z.1X5X&XXXy.y.a.",
"0.q.7.w.e.9XSXBXBX1X5XC.*X6XR._.1.Q 2.C.2XX.% D F t - % - r t t t h H h g t 0 * : p  .: #.B.: s P #.S.*XH.3.$.I ,.OX7X&XA.y.y.s.",
"-.q.q.w.A.9XAX5X8X*XY.B.%X3XT._.b.L $.C.Y.OX: % s s r + & & : 9 r g g s p > % & p F r : $X$.V d P 1.C.$XC.4.X.I <.Z.9X2Xe.y.}.i.",
"-.0.0.7.w.=XAX6X).U.P.V.&X*X_._.L.I D 2.G.OXP . & : a : & + % * * 9 : * & & : s H 2 O D :X$.s L P ,.K.$XC.2.X.U ,.t.7X2Xt.w.y.0.",
"q.0.0.r.y.J.&X%XL.%XU.P.6XU.)._.U.2.D P 3.H.C.& . & 2 3 : = + + & O % & = r s r : % O $.*X#.D L I ,.P._.C.,.X.j U <.*X7XA.8.y.r.",
"q.q.0.a.y.t.5X6X`.6XL.K.*XG.U._.R.P.P s #.b.U.L . + O @ = = ; : & : 3 : 2 3 : @ O O : *.&X$.D P I ,.U._.C.#.X.p j ,.H.2X+Xw.r.y.",
"q.0.0.0.8.e.*X).L.n.v.Y.P.C.K.U._.OX2.p P 3.C.L.;   X O @ + @ @ = & & ; 3 V y @ . ; D P &X$.D I X.,.T.Y.C.#.X.q d I 3.*X=Xy.w.7.",
"q.0.q.0.q.w.OXS.&.V $.Y.t.C.U.U.R.OXH.j s ,.3.%XQ   X # = 2 2 3 a C C G L a @ X   G 1.P $X2.L P $.4.I.Y.Z.$.X.q p U #.I.=XA.w.7.",
"q.0.d.d.>.y.0XVXNXn.$XY.4.Z.T.U.Y.I.OXX.d L 2.).L.#       @ = 2 2 : ; = @       + $.V.2.Y.#.P $.<.t.I.I.t.X.X.q q U $.B.&XJ.w.w.",
"0.0.>.>.q.2XFXNX6X4XNXB.4.Z.K.U.OXOXI.5.D H 1.G.-XV     X X       X X           ; v.S.b.T.$.$.#.3.G.Y.T.4.I I p > U X.3.XXJ.e.w.",
"a.0.+.7.w.7XAX6X%X4X3X3.3.B.P.U.R.$XOXt.I s P 3.%X1.  X X     X X X X           3 n.n.V.C.$.#.3.B.P.$X_.3.I P p 9 K K <.e.A.t.e.",
"d.0.q.8.e.9XAX%X`.6XU.2.B.C.P.U.R.*X$XH.$.p d ,.T.L.;   X o o o X               a n.V.b.b.$.2.Z.C.U._._.G.$.K r 0 j K  .<.e.<.t.",
"0.q.q.8.t.9XBXK._.6Xb.1.V.C.P.Y.Y.$XR.*Xt.j p $.5.-XC   X o $   o               C V.L.v.1.*.3.P.P._._._.*X#.F p 9 g K j X.%.<.A.",
"0.>.q.w.A.5X*XK.%X3X2.3.C.C.C.Y.R.Y.Y.&XI.$.D I ,.E.v.X @   $ o o               C S.U.v.#.#.B.P.Y._._._.&Xb.F j 9 p K k X. . .e.",
"+.>.y.8.A.$XB.U.5X%X2.C.C.Z.C.T.$XY.OX*XOXZ.,.P $.b.`.; X X o o o               V S.).b.*.4.C.T._._.%X*X%XG.K K p l | | X.k l %.",
">.8.y.8.J.*X4.K._.b.#.C.C.Z.C.T.R.Y.&X$XR.H.5.I I #.-XC   #   o o               y V._.B.#.b.P.U.*X_.%X%X*XI.K K g U | z k z { <.",
"0.u.y.8.XXY.#.2.$.P 2.B.H.Z.Z.T.T.R.*X*XR.G.5.$.P Q U.$.  X   o o               ; n._.C.2.S.U.U.*X`.%X%X*XY.X.U p | O.l l | 8.8.",
"u.u.w.w.t.#.D D s j t.C.T.Z.B.P.T._.R.&XR.C.,.,.L P b.v.@   o o o o o o     X . = V.*XU.B.U._.Y.`._.`.%X&XR.<.U p | :.z ' | 8.:.",
"u.y.y.8.<.D d j j P B.T.T.C.B.C.T.$XR.*X%XL.Z.Z.<.L Q U.3     o o o           . @ K.%XP.T.T.U._.%X_.3X_.1XOXt.:.p | :.| :.6.6.O.",
"y.u.y.<.#.j d D j X.B.P.T.H.B.B.I.R.R.%X%X_.U.Z.5.$.#.G.a   o o 4 , o     X . + 3 C.%XC.C.U._._.%X3X3X_.3X4.,.<.U z 6.:.:.u.O.O.",
"y.u.t.<.X.j j D j $.Z.P.Y.I.B.B.H.T._.%X%X_.Y.C.5.4.2.b.G   $ # m Z n o     = 2 L P.*X3.C.U._.;X%X%X*X%X6XP q d j z u.:.O.:.O.l ",
"y.y.t.<.X.s D D D <.H.H.OXY.B.3.B.P._.%X`._.U.C.2.2.$.4.L   $ , < x n $ # ; D D P I.&X$.H.*XY.*X1X%X1X%X3X1.3 q * q 6.:.O.8.u.k ",
"y.y.y.<.I s D j K t.H.I.R.I.B.3.B.P.U.U.%X%XL.C.C.t.#.K.1.# $ , 5 n < , 1 3 D d s <.C.F Z.3X$X%X5X1X3X%X-XK.L a p > <.6.O.:.O.| ",
"y.y.y.%.F s j j X.t.H.I.Y.P.V.5.3.C.P.U.%X`.L.K.H.Z.3._.n.# $ $ m Z , # $ C Q H p p I K Z.5X*X3X3X_.1XNX`.&.&.s d r P 5.K k | u.",
"y.y.w.X.g s j j ,.t.H.I.I.P.C.B.4.B.P.U.).U.S.P.P.T.T.%XL.# $ < Y m $ $ $ Q b.#.j 9 s K C.8X%X3X5X%X3XVXL   ; = & 3 d K g 0 o.w.",
"u.y.e.K p j j K 3.Z.H.I.I.G.C.B.t.3.C.L.L.U.L.S.P.OXT.Y.(.# $ 5 R < $ , # L 1.4.X.g r r #.AX:X3X5X1X1XNX6   .     & r > 0 9 X.<."
};
