/* XPM */
static char *_400b649aece4fe4d95fd177a49d61adKAkRxDSt9q9MT5te[] = {
/* columns rows colors chars-per-pixel */
"64 64 248 2 ",
"   c #0C0619",
".  c #0E091C",
"X  c #080415",
"o  c #120B1D",
"O  c #1A0D1E",
"+  c #1B111F",
"@  c #250C1D",
"#  c #32121E",
"$  c #2C111E",
"%  c #140E21",
"&  c #1B0E21",
"*  c #150F29",
"=  c #161124",
"-  c #1C1224",
";  c #1C152A",
":  c #1E192C",
">  c #19142A",
",  c #1E1A32",
"<  c #1D1834",
"1  c #0F0A21",
"2  c #220E22",
"3  c #2A0E22",
"4  c #231225",
"5  c #2B1325",
"6  c #221629",
"7  c #231A2C",
"8  c #2A1B2B",
"9  c #271827",
"0  c #341A26",
"q  c #341C2B",
"w  c #351627",
"e  c #231D32",
"r  c #2A1E32",
"t  c #231F3C",
"y  c #351E31",
"u  c #300E22",
"i  c #34212D",
"p  c #3E212E",
"a  c #2C2234",
"s  c #2B253A",
"d  c #2D293E",
"f  c #262136",
"g  c #342434",
"h  c #3B2433",
"j  c #33263A",
"k  c #332A3C",
"l  c #3B293A",
"z  c #382737",
"x  c #322533",
"c  c #431D28",
"v  c #48252E",
"b  c #432633",
"n  c #442A35",
"m  c #4B2A35",
"M  c #432B3B",
"N  c #4A2A37",
"B  c #552B33",
"V  c #4A313D",
"C  c #53323D",
"Z  c #5A343D",
"A  c #5A3338",
"S  c #55292E",
"D  c #693B3E",
"F  c #66363A",
"G  c #743E3A",
"H  c #76433C",
"J  c #2D2A44",
"K  c #292444",
"L  c #332D44",
"P  c #342C4A",
"I  c #36334C",
"U  c #3B344A",
"Y  c #3C3B54",
"T  c #442E42",
"R  c #483545",
"E  c #533543",
"W  c #5B3541",
"Q  c #5C3B44",
"!  c #563B49",
"~  c #463C54",
"^  c #56374A",
"/  c #663D46",
"(  c #693D51",
")  c #51376E",
"_  c #3E4057",
"`  c #47435B",
"'  c #584655",
"]  c #50404D",
"[  c #64434C",
"{  c #6A444C",
"}  c #6B4548",
"|  c #734A4D",
" . c #7D4C4B",
".. c #764545",
"X. c #6B4A53",
"o. c #664753",
"O. c #734D53",
"+. c #714E59",
"@. c #785558",
"#. c #65515C",
"$. c #494965",
"%. c #59506A",
"&. c #655563",
"*. c #7C5C64",
"=. c #785764",
"-. c #6B5A6F",
";. c #786876",
":. c #716875",
">. c #884A3E",
",. c #844E4A",
"<. c #975748",
"1. c #8A5D5A",
"2. c #875956",
"3. c #975E55",
"4. c #86524E",
"5. c #A15E4F",
"6. c #97625A",
"7. c #8A625F",
"8. c #A7685A",
"9. c #AC6A58",
"0. c #865868",
"q. c #8F5F74",
"w. c #8B6364",
"e. c #896468",
"r. c #946A66",
"t. c #9B6B64",
"y. c #976967",
"u. c #986776",
"i. c #987578",
"p. c #8D6F74",
"a. c #A66D64",
"s. c #A7746A",
"d. c #B47464",
"f. c #B47C6D",
"g. c #BB7D6C",
"h. c #B87666",
"j. c #AC7B72",
"k. c #A47875",
"l. c #B67D72",
"z. c #AE6974",
"x. c #C27C6C",
"c. c #CC7D7A",
"v. c #AC817B",
"b. c #BC8372",
"n. c #BC8B7D",
"m. c #B68478",
"M. c #B9826F",
"N. c #C48574",
"B. c #C48C7C",
"V. c #C58977",
"C. c #C38B7A",
"Z. c #777183",
"A. c #877B89",
"S. c #977987",
"D. c #B17783",
"F. c #978A95",
"G. c #8C8693",
"H. c #A88586",
"J. c #B88B85",
"K. c #BB928C",
"L. c #B89697",
"P. c #A99198",
"I. c #9794A5",
"U. c #A49BA7",
"Y. c #BB9FA5",
"T. c #A9A2AB",
"R. c #B8A4AA",
"E. c #B3AAB5",
"W. c #9CA1AF",
"Q. c #C49383",
"!. c #C99584",
"~. c #C4968A",
"^. c #CB9B8C",
"/. c #C7978A",
"(. c #C99C93",
"). c #C79384",
"_. c #CDA396",
"`. c #D1A395",
"'. c #D4A99D",
"]. c #D5A99B",
"[. c #C8A7A9",
"{. c #D3ACA2",
"}. c #D8ADA8",
"|. c #D6B1AC",
" X c #DBB3A8",
".X c #C6B3B8",
"XX c #DAB8B7",
"oX c #C9ACB2",
"OX c #EDBCBC",
"+X c #E7B9B7",
"@X c #F1BBBD",
"#X c #F0B7B8",
"$X c #E4B2AE",
"%X c #D49FA0",
"&X c #E5C3BD",
"*X c #F4C2BF",
"=X c #BDB6C2",
"-X c #CDBDC6",
";X c #EFBDC0",
":X c #F1BFC0",
">X c #CAC5CC",
",X c #DDC5CA",
"<X c #DFC9CD",
"1X c #DAC4C7",
"2X c #D5CBD4",
"3X c #DAD5DD",
"4X c #CBC9D1",
"5X c #EEC3C4",
"6X c #EDC6C9",
"7X c #E2CBCE",
"8X c #EBCBCC",
"9X c #E1C7CC",
"0X c #F3C3C4",
"qX c #F3C6C8",
"wX c #E3CED1",
"eX c #EACFD1",
"rX c #E5D1D4",
"tX c #EBD1D5",
"yX c #E6D4DA",
"uX c #EAD5DA",
"iX c #EAD9DE",
"pX c #E5D9DE",
"aX c #F4D9DC",
"sX c #DBD9E2",
"dX c #EADDE1",
"fX c #E3DDE4",
"gX c #F6DDE3",
"hX c #EBE1E5",
"jX c #ECE4EB",
"kX c #ECE9ED",
"lX c #E5E3E7",
"zX c #F4E5EA",
"xX c #EEECF3",
"cX c #E4E6F0",
"vX c #F1EEF4",
"bX c #F5EDF5",
"nX c #F3F1F7",
"mX c #F6F2FD",
"MX c #F6F6FF",
"NX c #F5F3FC",
"BX c #F9F5FE",
"VX c #F3F9FF",
"CX c #F4FAFF",
"ZX c #F7FDFF",
"AX c #F5FCFF",
"SX c #F6FBFE",
"DX c #FCFEFF",
"FX c #F8F0F7",
/* pixels */
"VXVXVXVXVXVXVXVXMXMXMXMXMXMXMXMXmXmXmXNXnXnXnXnXvXxXxXxXxXxXxXxXkXkXkXjXjXjXhXhXdXdXdXdXpXyXyXyXyXyXyXrXrXwXwX<X<X<X<X<X,X1X1X1X",
"CXCXCXVXVXVXVXVXVXCXCXCXVXMXMXMXMXmXmXmXmXNXNXNXnXxXxXxXxXxXxXxXkXkXkXjXjXjXhXhXhXdXdXdXiXpXyXyXiXyXyXyXrXwX<XwXwXwX7X<X<X1X1X1X",
"ZXZXZXZXZXCXCXCXCXCXVXCXMXMXMXMXMXmXmXmXmXmXmXmXnXvXvXxXxXxXxXxXvXxXkXkXjXjXjXlXhXhXhXdXdXiXiXiXiXiXuXyXrXrXwXwXwXwX<X7X<X<X,X,X",
"ZXZXZXZXZXZXZXCXCXCXCXVXVXCXMXMXMXMXMXMXmXmXmXmXnXnXnXvXvXxXxXxXvXxXkXkXjXjXjXjXhXhXhXdXdXdXiXiXiXiXuXyXyXrXrXwXwXwX7X<X<X<X,X,X",
"ZXZXZXZXZXZXZXCXCXCXCXCXCXCXCXMXMXMXMXMXMXmXmXmXnXnXnXnXvXvXxXkXxXxXkXkXjXjXlXhXhXhXhXdXdXdXdXiXiXiXiXiXyXyXrXwXwX7X7X<X<X,X,X,X",
"ZXZXZXZXZXZXZXZXZXZXZXCXCXVXVXMXMXMXMXMXBXmXmXmXmXNXNXvXxXnXBXBXBXBXNXNXNXNXFXbXjXjXdXdXdXdXdXiXiXiXiXiXyXyXyXrXwXwXwX7X7X9X9X9X",
"ZXZXZXZXZXZXZXZXZXZXZXZXCXCXCXCXCXCXMXMXBXBXmXmXmXvXMXDXDXxX4XU.G.;.:.Z.A.Z.F.>X3XlXbXhXiXdXdXdXiXiXiXuXuXyXyXrXrXwX7X7X7X7X7X9X",
"ZXZXZXZXZXZXZXZXZXZXZXZXZXCXCXCXCXCXCXMXBXBXMXmXNXDXfXE.G.' g 8 r r f r f f s L ~ ' A.2XbXhXiXiXdXdXiXiXuXuXyXrXrXwX7X7X7X7X7X7X",
"ZXZXZXZXZXZXZXZXZXZXZXZXZXZXZXZXCXCXCXMXBXMXnXMXDXU.l 4 O O + - 6 7 7 6 7 e a s L d s ~ G.2XzXiXiXiXiXiXuXuXuXyXrXrXwX7X7X7X7X7X",
"DXDXDXDXDXZXZXZXZXZXZXZXZXZXZXZXZXCXCXMXnXxXMXDXU.O & - - - % - ; ; 6 - - - % - 7 s d s a R P.hXdXyXiXiXiXuXuXyXrXrXwXwXwX7X7X9X",
"DXDXDXDXZXZXZXZXZXZXZXZXZXZXZXZXZXCXMXNXMXDXlX:.6 ; - & - - ; e 7 6 6 6 6 7 7 ; - - 6 e J L g ;.rXdXyXiXuXuXuXuXrXrXwXrXrXwX7X7X",
"DXDXDXDXZXZXZXZXDXZXZXZXZXZXZXZXCXCXvXjX2XT.R + 6 - - - 6 e e r 7 7 - - - - - o . % - 7 : d U y ' 1XdXyXiXuXuXuXtXrXrXrXrXwX7X7X",
"DXDXDXDXDXZXDXDXDXZXZXZXZXZXZXZXCX3XT.-.g - - - 6 7 e r s a r g h n h 6 - % o o o . = ; - - s U 8 C 1XgXuXuXuXuXuXtXrXrXwX7X7X7X",
"DXDXDXDXDXDXDXDXDXDXZXZXZXZXZXZX>XA.R 6 6 6 7 g ! ! V l l V [ @.2.1.1.| Z V i & o . o - - % > I ~ q p.zXuXuXuXuXuXtXrXrXrXwX7X7X",
"DXDXDXDXDXDXDXDXDXDXDXDXZXZXCXBXG.O 6 7 r M @.p.v.v.k.r.r.s.m.f.f.f.a.a.3. .W q - o . o o o = L $.~ b L.zXuXuXuXuXtXrXrXrXwX7X7X",
"DXDXDXDXDXDXDXDXDXDXDXDXZXZXnX2X] - g Z @.k.m.n.Q.Q.B.B.Q.Q.B.b.b.M.d.s.8.2.} n 8 = - o o . . e ` %.T m .XgXuXuXuXuXtXtXtXwXwX7X",
"DXDXDXDXDXDXDXDXDXDXDXZXZXDXNX-X] i w.j.m.n.B.B.Q.B.B.Q.Q.Q.B.V.B.b.b.g.f.8.6.| h - - % o . . . d $.%.0 o.iXiXuXuXtXtXtXtXrXwXwX",
"DXDXDXDXDXDXDXDXDXDXDXDXZXZXDXfXS.i.n.n.Q.Q.Q.Q.Q.Q.!./.!.!.Q.B.V.N.b.N.b.g.d.6.W 8 - - o . .   * J s j 0 R.zXuXuXuXuXtXtXrXwXwX",
"DXDXDXDXDXDXDXDXDXDXDXDXDXZXDXlXL.J.n.n.Q.Q.^.^.(.`.^.`.(./.Q.Q.V.V.V.N.N.N.x.a./ h 9 6 % . . .   = U %.x #.wXiXuXuXuXtXtXtXrXrX",
"DXDXDXDXDXDXDXDXDXDXDXDXDXDXDXkXK.J.Q.Q.^.`.`.`.'.'.'.'._.^.^.!.B.B.V.V.N.b.g.d. .b q 8 O . . .   = L $.` i n -XgXtXtXtXtXtXrXtX",
"DXDXDXDXDXDXDXDXDXDXDXDXDXDXDX1Xv.Q.~.^.`.`.].'.{.{.{.{._.^.^.Q.B.B.B.B.b.g.d.8. .v 8 7 4 o . . . . : I ~ l $ R.zXtXuXtXtXtXtXeX",
"DXDXDXDXDXDXDXDXDXDXDXDXDXDXDXL.m.~.Q.^.].].].{.].'.{.{._.^.Q.Q.B.B.V.b.g.h.a.3. .C q i 7 o . . . o = K I a 9 P.zXtXuXtXtXtXeXeX",
"DXDXDXDXDXDXDXDXDXDXDXDXDXDXkXH.n.~.^.`.'.}.}.].].].].].`.^.!.B.B.b.b.g.g.d.8.6.,./ N b 8 o . . . . % >   % 2 Y.gXtXuXuXtXeXeXeX",
"DXDXDXDXDXDXDXDXDXDXDXDXDXDX<Xv.~.^.`.]. X X}.'. X X X'.`.^.!.B.B.b.f.f.d.a.8.3. .D Z b 8 - o . . .   f W.A.h oXgXuXuXtXtXtXeXeX",
"DXDXDXDXDXDXDXDXDXDXDXDXDXDX.XJ._.'.'.{. X X XXX&X&XXX X|.].`.!.B.b.g.d.d.d.8.3...D Z b h 6 % . . % X G.DXsXg m XXaXtXtXtXtXtXtX",
"DXDXDXDXDXDXDXDXDXDXDXDXDXDX[.(.{.}.{. XXX|.XX1X1XXXXXoXY.L.L.J.Q.B.V.g.h.h.h.9.G A B p z 6 % = % . X U G.$.5 0 oXaXtXtXtXtXtXtX",
"DXDXDXDXDXDXDXDXDXDXDXDXDXDXP.H.H.H.L.[.|.[.L.H.p.&.&.' ] ' ' ! X.t.j.f.h.h.x.d.,.v b h 6 e s s , % %   d U 2 =.gXtXtXtXtXtXtXtX",
"DXDXDXDXDXDXDXDXDXDXDXDXDX4Xi l M ! p.H.L.L.p.E 8 j k g j r a g j N A ..8.d.h.h.3.B n q o k L s ; 7 6 . _ ` 5 *.aXtXtXtXtXtXtXeX",
"DXDXDXDXDXDXDXDXDXDXDXDXkXG.a 7 6 8 Q p.H.i.@.n j k j T R &.o.{ X.X.| ..,.8.h.h.8.F 8 o : Y L : 6 l O . , L 0 [ XXuXtXtXtXtXtXeX",
"DXDXDXDXDXDXDXDXDXDXDXF.U.G.' &.R y h O.K.K.{ b E h P ) ' ! *./ Z / }  .4.a.x.h.5.F 4 = L Y d > f 6 o - 7 4 5 v oXaXtXtXtXtX8X8X",
"DXDXDXDXDXDXDXDXDXDXF.E.DXvX' j -.-.Z.i.{.k.C O./ E U K ~ ~ R =.C | 3.h.c.c.h.9.8.F q 7 I I e e : o 7 j 6 & 5 # R.aXtXtXtX8X8X8X",
"DXDXDXDXDXDXDXDXDXBX;.jXsXsX;.T Y -.S.[.K.0.W 2.@.O.=.j %.A.^ ;.S.s.l.s.j.s.d.x.d...w e I K e L = = s f = h 4.F H.gXeXtXtX8XeX8X",
"DXDXDXDXDXDXDXDXDXR.' E.2XfX;.o.' ! H.$X`.y.{ r.1.@.X.o.+./ { A | 2.t.j.j.g.N.N.d...5 f I , J I . 7 s - 9 e.1.F D.aXeXeXeX8X8X8X",
"DXDXDXDXDXDXDXDXDX3X' >XDX3X' =.+.O.|.$X`.y.[ i.v.k.w.w.w.1.r./ 1.j.j.f.f.b.N.N.d. .5 J J < Y d o d s - R H.# c D.aX8X8XeX8X8X8X",
"DXDXDXDXDXDXDXDXDXDXZ.I.BX4X[ i.1.K.0X}./.j.} K.Q.(.m.k.j.J.J.D a.B.B.B.V.N.N.x.d...6 L f e $.f : ~ L d X./ u c D.tX8X8XeX8X8X8X",
"DXDXDXDXDXDXDXDXZXDX=XU.cXcXp.k.J.+X+X].Q.!...i.XX`.^.Q.J./.D.( /.^.^.!.B.N.N.g.d.D 6 I e J $.= J ` L ~ X.c 0 c K.tX6X8X8X8X8X8X",
"DXDXDXZXZXDXDXZXZXZXDXT.4XDX.XH.|.6X5X'.`.^.m./ F.-X&X+X}.K.} s.^.^./.!.N.g.g.d.6.C , L < L L 1 L J e T / 0 w S [.tX6X8X8X6X8X8X",
"DXZXZXZXZXZXDXZXZXZXDXnXG.I.T.i.H.[.K.w.1.k.~.m./ &.;.p.*.| s.Q.Q.~.Q.b.g.g.d.8. .h , J < K , % , > : l m 0 w / XX8X6X8X8X8X8X8X",
"ZXZXZXZXZXZXZXZXZXZXVXDX>X4 #.O.p.w.O.v W { @.3.r.K.i.e.y.J./.Q.~.Q.m.f.f.d.a.2.Q 8 , K > < * . = > * M b w w y.6X6X8X8X6X6X6X6X",
"ZXZXZXZXZXZXZXZXZXZXZXVXDXE.i.[.i.b E o.=.X.@.4.H.|.+X&X+X X'.~.n.m.j.j.s.a.3.} N & : t * * . o o o . b v 9 S J.6X6X6X6X6X6X6X6X",
"ZXZXZXZXZXZXZXZXZXZXZXZXZXxXL.H.b & T M g q [ j.{.}.}.|.|.}./.J.j.m.s.s.t.2.| W h o > e % % o . . o   n v # u.(.+X6X6X6X6X6X6X6X",
"ZXZXZXZXZXZXZXZXZXZXZXZXDXfXS.[ 4 ; 6 - 6 6 q @.H.K._.{.{._.Q.m.j.j.t.r.2.[ m N q o > e % o % . . o   b } ..D.|.+X6X6X6X6X6X6X6X",
"ZXZXZXZXZXZXZXZXZXZXZXBXDX>XM r 7 r R g 6 7 8 V ! @.r.J.(.~.J.j.t.y.w.X.E E q 8 6 o ; , 1 o - o o . . 5 ....s.XXOX5X5X6X6X6XqXqX",
"ZXZXZXZXZXZXZXZXZXZXZXBXDXA.& f 8 9 T z 6 7 a g g M N | k.k.k.t.2.O.{ C g b g 7 & o - , . o 6 & o ; % O B i.|.OXOX5X5X0X0X6XqXqX",
"ZXZXZXZXZXZXZXZXCXZXCXDX2Xl - 7 q y W ( ^ T g g g g r b O.7.2.2.{ E M h 8 8 8 4 & o % ; .   & o - J : n |.OXOXOX;X;X5X5X0X0X0XqX",
"ZXZXZXZXZXZXBXBXBXBXBXDXU.4 : k 0.D.D.D.z.u.0.Q z 8 a 8 b O.| Q C n 7 6 6 - 6 - & o o % o + o o , K % e.0X+XOXOX;X:X:X5X5X5X0X0X",
"ZXZXCXCXCXBXBXBXBXBXBXBX3X' - l =.0.q.u.S.q.0.=.X.z 6 6 q C E M h g - - - - - O o o 4 0 w y g y r t O L.:X#XOX@XOXOXOX;X5X0X0X0X",
"CXCXBXBXCXCXBXCXBXBXBXBXDXF.o g g r r g z l V [ [ R 7 6 7 8 8 r g 7 - - - o o o o o w v v @ o 4 4 % M +X#X#X#X@XOXOX@X:X0X0X0X0X",
"CXCXCXBXBXBXBXBXBXBXBXBXDXU.% 7 7 7 e 7 7 f l E R M f ; & & - - 6 - - & o o o o o - v S F S o   - e o.%X@X#X#X#X#X@X@X:X0X0X0X0X",
"CXCXMXCXBXBXBXBXBXBXBXBXDXE.- 7 7 7 e r r f g T z z a 6 - % % = = - % o o o o . O v A A H G 0 o ; s 5 c k.$X#X#X@X@X@X@X:X0X0X0X",
"CXMXBXBXBXBXBXBXBXBXBXmXDX-X7 : 7 e f s f a a g 8 8 7 6 ; = o % o o o o o o % o 5 D D F >.>.B 2 6 7 4 3 # y.+X#X@X@XOX@X@X0X0X0X",
"MXMXMXMXBXBXBXBXBXBXBXmXBXlXR % , r 7 e 7 r : 7 6 ; ; - = & % % o o o o o o o & b ,...G <.<.D 5 6 6 O 5 w c } w.D.$X0X@X@X:X0X0X",
"BXBXMXMXBXBXBXBXBXBXMXmXNXDX;.o e : > > > : > ; > - % % o o o o o o o o . o O N  .3.2.H <.5.D 2 7 - O & 4 5 3 3 w / k.$XqX0X0X0X",
"BXBXBXBXMXMXMXBXBXBXMXmXNXBX2Xj % > % % % = % % % % o o o o . . o . . . o 0 W | 2.6.6.,.<.9.B - a O & & 4 4 5 5 5 @ # F k.}.*X0X",
"mXmXMXBXmXmXmXmXmXmXmXmXmXNXNXT.o . % % % o o o o o . . . . . . . o O 9 n Q O.@.6.8.a.4.5.3.5 7 s O - - & 4 5 5 5 3 5 3 # F y.{.",
"mXmXmXmXmXmXmXmXmXmXmXmXNXNXNXnXI.g - o o . o o .   . . . o O 4 4 q N Z { @.2.1.t.a.a.2.8.H O s r O 4 4 - 4 4 4 3 3 5 5 w w w F ",
"mXNXNXNXNXmXmXmXNXNXNXNXNXNXnXbXDXpXF.' 6 % o o o & - - - 6 8 h N Q { { O.2.w.r.t.a.a.6.1.q & s 7 & 4 4 & 4 4 2 2 2 3 3 5 w w u ",
"NXnXnXnXNXNXNXNXNXnXnXNXbXnXBXbX-XP.o.w 9 6 & o o z n q q i h V W [ | O.2.w.y.t.t.a.t.7.C & - k - & 4 - - 4 3 2 2 & 2 4 4 4 5 5 ",
"xXxXxXxXvXvXxXxXvXxXxXvXBXvX.X#.w 2 O & 4 4 & o   y E h p h N E Q | O.@.e.r.y.t.t.t.t.Q & & - k & 4 4 & 4 4 4 & & & - 4 4 4 4 2 ",
"kXkXkXkXkXkXNXNXxXNXBXvXR.=.q @ 6 6 - - 4 4 O o   5 E N b N E Q [ | @.w.e.e.e.r.t.r.[ O & & 6 s & 4 & O - 4 & & & - - & - 4 2 & ",
"lXlXlXlXlXxXT.-.&.:.F.;.w @ 4 6 - - & 4 4 2 O o   4 C E C C E Q [ X.@.*.*.e.e.e.r.{ & - & % 7 e & & & & & & & O & & - & & & & & ",
"lXlXlXlXvXT.a f a r r a g 8 4 4 - - - 4 4 4 O o o 6 M W Q Q Q [ o.X.+.@.*.w.e.e.[ 9 4 & & & r 7 & & & & & & & & & & O & & & & & ",
"lXlXlXlX2XU d k k k k x x k 8 - - & - 6 4 4 & o O 8 h V [ [ / [ { o.O.@.@.@.*.E 2 & - O O O r - & & & & & O O & 4 & O O & O & & ",
"fXfXfXjX:.e k s s s s a a g j 7 - - - 4 4 4 - o 4 g n n ! X.{ [ o.o.+.@.@.[ h O & - & O & - r o & & & O O o O - & O O O O O & & "
};
