/* XPM */
static char *_c340da4d132485995d7b418e5d1f472IMVNaitOtOuQsT7Z[] = {
/* columns rows colors chars-per-pixel */
"64 64 243 2 ",
"   c #040302",
".  c #0A0503",
"X  c #0B0A06",
"o  c #0C0B0A",
"O  c #06090A",
"+  c #130502",
"@  c #140C03",
"#  c #120D0B",
"$  c #1B0D08",
"%  c #0E110C",
"&  c #0A1609",
"*  c #1C1304",
"=  c #13120D",
"-  c #1B130B",
";  c #18170A",
":  c #0C0E11",
">  c #070E12",
",  c #130E12",
"<  c #0D1313",
"1  c #0A1617",
"2  c #141412",
"3  c #1B1613",
"4  c #141915",
"5  c #1B1915",
"6  c #131619",
"7  c #151B1B",
"8  c #1C1C1B",
"9  c #1B171A",
"0  c #240A05",
"q  c #22140C",
"w  c #231A0B",
"e  c #2B1D0C",
"r  c #271608",
"t  c #381C04",
"y  c #251613",
"u  c #241B13",
"i  c #2A1B14",
"p  c #231D1A",
"a  c #2C1D1A",
"s  c #281716",
"d  c #311C17",
"f  c #250F11",
"g  c #1B211B",
"h  c #39240B",
"j  c #24221C",
"k  c #2C231C",
"l  c #292619",
"z  c #33231C",
"x  c #38261A",
"c  c #302612",
"v  c #1D1E21",
"b  c #171E21",
"n  c #0D1E22",
"m  c #241E20",
"M  c #1C2223",
"N  c #1D2A2C",
"B  c #162326",
"V  c #1E2D31",
"C  c #242423",
"Z  c #2A2523",
"A  c #242924",
"S  c #2D2A24",
"D  c #252B2C",
"F  c #2B2B2B",
"G  c #252629",
"H  c #332C23",
"J  c #3A2C24",
"K  c #332D2A",
"L  c #3A2E2A",
"P  c #342522",
"I  c #2D312B",
"U  c #343226",
"Y  c #3B3226",
"T  c #34322C",
"R  c #3B342B",
"E  c #38392C",
"W  c #252E32",
"Q  c #2B3334",
"!  c #293538",
"~  c #343534",
"^  c #3B3632",
"/  c #3C3B34",
"(  c #3B3C3B",
")  c #343939",
"_  c #302E31",
"`  c #431C0A",
"'  c #47251A",
"]  c #512D11",
"[  c #442A25",
"{  c #552B22",
"}  c #4B332D",
"|  c #433A2E",
" . c #45352A",
".. c #57352A",
"X. c #443C33",
"o. c #4B3C34",
"O. c #423D3B",
"+. c #483734",
"@. c #543C37",
"#. c #673B2F",
"$. c #663E0B",
"%. c #3C423B",
"&. c #44423C",
"*. c #4C443B",
"=. c #494538",
"-. c #53453D",
";. c #56473B",
":. c #55442C",
">. c #795628",
",. c #67453A",
"<. c #75473A",
"1. c #73512C",
"2. c #744F18",
"3. c #2E3C42",
"4. c #323D42",
"5. c #393E41",
"6. c #413F40",
"7. c #394548",
"8. c #3C4A52",
"9. c #434342",
"0. c #4C4B43",
"q. c #4B4C4A",
"w. c #464947",
"e. c #544B43",
"r. c #534E4A",
"t. c #5A4843",
"y. c #4E524A",
"u. c #5C554C",
"i. c #575449",
"p. c #424E52",
"a. c #454F59",
"s. c #4B555C",
"d. c #495557",
"f. c #535B5D",
"g. c #595A56",
"h. c #694A47",
"j. c #774D46",
"k. c #67554B",
"l. c #78554A",
"z. c #635C54",
"x. c #685C55",
"c. c #7B5C54",
"v. c #765A54",
"b. c #5D635A",
"n. c #68635A",
"m. c #7C645D",
"M. c #76655A",
"N. c #7B634B",
"B. c #4E5B62",
"V. c #535D66",
"C. c #58656A",
"Z. c #5C6D71",
"A. c #666A66",
"S. c #786B64",
"D. c #78736B",
"F. c #636E73",
"G. c #687578",
"H. c #777C7A",
"J. c #68726C",
"K. c #855C35",
"L. c #85584A",
"P. c #855C53",
"I. c #955A50",
"U. c #8C655C",
"Y. c #886559",
"T. c #95675A",
"R. c #97725D",
"E. c #846547",
"W. c #896C65",
"Q. c #976C64",
"!. c #87756A",
"~. c #9B7265",
"^. c #9B746A",
"/. c #97766C",
"(. c #877D75",
"). c #997973",
"_. c #A77668",
"`. c #B47C6B",
"'. c #B57B6B",
"]. c #A77C74",
"[. c #B57C72",
"{. c #BA7E74",
"}. c #A26D63",
"|. c #A0715F",
" X c #C17F71",
".X c #7D837B",
"XX c #9A857A",
"oX c #8B857A",
"OX c #B4816E",
"+X c #A88479",
"@X c #B98376",
"#X c #C48679",
"$X c #717E82",
"%X c #697B81",
"&X c #7A878A",
"*X c #77898D",
"=X c #899799",
"-X c #989493",
";X c #908B85",
":X c #AC8C83",
">X c #B68B83",
",X c #B5968A",
"<X c #AB9C94",
"1X c #B1988E",
"2X c #BAA297",
"3X c #AEA39F",
"4X c #909FA2",
"5X c #95A5A9",
"6X c #B8ADA9",
"7X c #B3B1B0",
"8X c #C48D81",
"9X c #C69589",
"0X c #CD9B8F",
"qX c #C4A79A",
"wX c #D0A999",
"eX c #CAACA3",
"rX c #CAB5AA",
"tX c #D9B6A9",
"yX c #C6BBB5",
"uX c #D7BDB3",
"iX c #D8A9A3",
"pX c #E1BBAC",
"aX c #E5BFB5",
"sX c #D6C4BB",
"dX c #CFC0B7",
"fX c #E5C7B8",
"gX c #AEC2C6",
"hX c #DBCAC4",
"jX c #DDD4CD",
"kX c #E4CEC4",
"lX c #E8D4CB",
"zX c #F3D9CC",
"xX c #E8D9D5",
"cX c #F5DED5",
"vX c #FACECB",
"bX c #EEE2D9",
"nX c #FDE5DB",
"mX c #F6E4D9",
"MX c #F7EBE5",
"NX c #FCF3EC",
"BX c #F9F1E8",
"VX c #FEF8F3",
"CX c #ECE6E2",
/* pixels */
"e.| U E =.=.=.=.o.o.o.-.@.} @.} x c h h h h t t ] >.K.>.] $.K.2.] $.>.K.E.:.t r e w ; g j A I ~ / R R R T H k x S S S S S Z Z Z ",
"*.U k X.i.u.z.n.x.z.x.S.v.@.} x d e e d h ` ` ` ` ` ] K.2.] 1.>.1.>.1.$.] h r r w * ; 5 j j A S U U U k k H H S S K K K Z j j j ",
"R x U *.z.n.S.(.D.!.S.S.k.-.@.} z z z z d x x ' h t ' ,.:...N.N.:.:.] t r e e w * @ X @ ; = 3 5 l U U k k H U l l H K K l p p p ",
"H Y X.=.*.-.e.u.-.k.e.J i  .k.t. . .[ J d d d d d z d i i z =.Y e c e * * e l 5 ; ; ; ; ; ; w i S T T k l k l 5 u l l Z l p 5 - ",
"i.u.u.;.-.;.-.X.=.e.R q @ z -.o.o.+. .P s f f y s y 3 m m 8 M 4 j 3 = ; = 3 8 5 3 l R R Y J Y | X.E Y k u ; @ ; - - u k z k p ; ",
"M.n.i.i.M.(.D.n.z.-.H k k J o.+.J H z i q $ f y m p Z _ ) Q ! ! A 2 2 8 7 5 5 5 5 ^ u.x.u.e.;.e.e.=.R k - @ @ - - - u k R T l 5 ",
"k.=.R *.n.!.S.z.=.U l R X.X.-.=.c e r * * q w i u k l j I %.%.q.~ g 8 C g 8 C 8 8 / z.n.x.i.;.-.-.=.R l - * - i - u k L | R z u ",
"u.| Y =.u.e.X.U E =.0.u.e.X.X.U e w * * * w e c Y J Y E =.=.0.n.n.9.T C 5 8 A Z j &.g.n.u.-.o.| Y | R u - - u - - i P R +.| H l ",
"X.-.e.u.*.=.=.l &.D.oXD.g.R S l ; * * * r e x x } ;.;.;.k.k.M.!.oXM.i.l u R p Z S ^ u.n.z.*.| H l | | i - k k - y i P o.=.=.k | ",
"e.n.n.u.=.X.0.&.*.A.A.g.*.X.Z - @ @ @ w z [ } } ..;.,.,.k.v.Y.XX1X2X1XM.Y * i k k T i.A.z.O.S u k Y H - $ k L P k u u H X.;.Y =.",
"e.x.z.u.g.g.g.0.i.n.A.i.T S 3 3 # 3 k L @.t.h.h.@.,.,.h.l.c.W.XX:XqXeX1XM.r k z P R 0.g.r.^ K S z x a $ $ k L L u q y J ;.k.o.| ",
"O.0.&.r.A.n.g.w.g.g.A.q.F 2 # p # p L @.t.h.h.h.h.h.h.j.c.Y.W.).,XwXeXfX2X:.r i L ^ *.*.^ T T T z x z i q i a k a y a *.z.k.:. .",
"^ 0.&.9.0./ &.y.g.g.b.F G 2 9 3 $ P t.h.h.h.j.j.j.l.l.P.W.Q.^.+XqXfXsXzXkXXXz u k X.0.&.T T T j z J Y x u q s a L a J u.n.;.:.:.",
"^ 9.w.w.%.I ( y.g.H.A.M m 9 G $ q } v.v.l.j.l.j.j.L.P.U.^.].:X2X2XfXuXkXbXxXM.u l R 0.&.T E ^ S x  .| J i q a P a q L x.M.:.:.:.",
"~ &.w.g.g.y.d.w.f.-Xg.v 9 v G $ e :.N.E.l.l.l.j.L.P.P.U.^.+X,XqXrXsXsXhXbXBX7XK S T &.=.T U R R Y | +.J s y a P $ $ H k.x. . .J ",
"~ 9.y.g.f.A.F.p.f.&Xv 6 8 Z p + h ,.Y.R.T.R.~.R.U.T.T.Q.^.+X,XeXrXuXlXbXmXbXVXD.K T &.9.T g j l Y o.o.J i y s s a q z o.-.c x e ",
"I 0.y.g.A.F.Z.B.G.D < O Z 3 s + [ m.R.R.R.|.}.}.T.~.~.^.].@X0XtXtXdXfXbXBXNXCXjX/ j 0.A.T = g l U E k u w q q $ y a z d a d i $ ",
"E 0.y.b.F.G.%XG.G.W 6 O p - s $ } Y.^.~._._._._._.].].].@X>X0XpXpXfXlXmXBXVXBXCXz.^ O.g.&.X l E E H u ; * @ - z y d z a i k a s ",
"/ y.b.J.F.F.&X*XB.N 6 : Z 3 a q } Y.~._.`.`.OXOX@X@X@X>X>X9X0XiXfXfXzXmXBXVXNXBX3Xe.T &.n.j j &.%.l j k i @ - H L  . .P k k P k ",
"&.g.b.A.J.$X*X$XW 1 : , Z s a y o.Y.~._.OXOX@X@X@X@X>X>X9X9X0XwXpXfXlXmXnXBXNXNXCXD.O.^ n.T ; i.y.U k U H u i J *.-.-.+.J H H K ",
"/ %.%.w.C.&XG.4.> O O o p s a i ;.W.^._.OX`.`.'.@X@X@X@X8X8X8X0XiXpXkXcXmXMXBXNXNX6Xx.9.y.5 O A.b.U l l p k l L R +.X.R H H K R ",
"/ w.w.w.d.F.f.< > > O O 3 s a z ;.W.^._.OX`.'.'.`.{.{.@X8X8X#X0XwXtXfXzXnXMXBXNXNXMXS.9.&.  2 y.A./ E T R =.X.X.X.*.*.*.X.O.X.O.",
"A.H..XH.G.H.A.v 6 v , . $ y s z ;.W.~._.OX`.'.'.`.[.[.{.#X#X#X#X0XwXpXzXmXmXMXBXNXVX;XZ K o < %..Xy.i.i.i.z.e.0.r.r.r.r.0.9.&.&.",
";X;X;X=X-X4XH.G 6 v o   . $ $ s k.!.)._.OX`.'.'.`.[.[.[.#X#X X#X9X0XtXfXzXmXmXMXMXNX6X# 3 2   %..X%.&.%.T / K R K K H S Z j j j ",
"w.y.p.y.d.g.q.M 9 K 2 3 . + . s k.W.^._._.`.@X'.@X{.[.[.{.#X#X#X8X0XfXfXnXmXcXNXbXVX6X# # o   D J.j ; ; % 3 = 3 3 3 = o X X X   ",
"b 7 1 7 1 6 8   F ^ 9 O.. # . s t.!.)._.`.`.`.'.`.[.@X@X{.@X#X#X8XwXuXfXlXkXnXxXCXMX6X.   8 7 5 H.I 5 3 = 3 = = = = = o o = = = ",
"N B N Q D Q ( C ( O.p n.. . X $ @./.].~._._._._._._.[.[.[.@X@X#X9XtXtXtXuX<X6XyXNXcXyXZ . o % % A.S = 4 2 2 = 3 3 3 2 o = 5 8 j ",
"N B B W Q ( 7.2 T O.j n.o   # + +./.^.U._._._.`._.}.T.Q._.`.'.@X9X>XqX:Xm.(.dXsXsXhXdXO.p O % C 0.j = 4 = % # 3 = = # o o 4 8 8 ",
"3.B B ! ) ) ( C 5 / Z &.3   2 . J W./.U._._._._._.Q.T.T.Q.}._.OX].2XW.h.M.S.<XoX<XhX<XZ p #   % ( F j 8 = . X # # # o X   O o o ",
"V 1 1 p.f.%.( 9.. S j p 3   2   a m./.W.~.T.T.I.j.j.j.j.<.<.<.P.+X:Xh.h. .Y sXjXxXNX(.K O.Z X = T T C 5 o   X . # # # X X X     ",
"n 1 n s.G.g.9.y.  3 5 X #   :   $ k.W.Q.U.L.L.L.P.j.,.,.,.<.L.U.tX2Xh.k.(.S.yXxXbXbXe.k R =   5 C ~ p o . . # . # , # o O O O   ",
"B B 1 %.J.b.0./ = = 3 # X o 6   . @.W.W.Y.L.U.T.T.<.{ { #.j.L.Y.:X:X:Xv.m.-XyXbXCXVXk.R p   X 2 Z / p .   X 3   # # o X X O O O ",
"D A 4 E D.y.R E l   X 3 X X 2   . z m.W.c.U.l.#...<.#.{ ,.l.Y.U.,XeX2XW.!.2XuXbXbXNXu.J 3 o 2 = T T 8 3 # . =   X X X X O       ",
"E &.E U g.-.X.| R @   # .   : o . i k.m.v.c.j...j.j.<.L.L.,.l.+XeX+X/.lX1X:X2XsXxXNX(.e.j . = 2 K j 3 3 = X =   X O O X O X     ",
"U b.y.E u.u.i.=.e.u   . X   O 2   @ o.v.m.W.Q.U.T.j.<.U.j.' ,.+X,XfX,XzXuXsXsXuXmXxX;X0.K 3 j 8 j = = 2 = = X X X X X X O O X   ",
"U y.&.l =.i.k.e.n.J . . o X   O   . H t.v.m.U.T.~.Y.L.U.j...j.~.+XnXfXuXuXeXrXrXhXhX6Xr.j X Z T 2   = 2 # o   X X X X X O O O O ",
"i.i.R H i.u.x.n.S.*.3 . X O O   . + i -.k.h.l.P.Y.U.T.T.L.<.Y.~.+XeXnXzX2XXXrXrXhXlXjXz.p X j j =   3 3 o X   o o o o o o o o o ",
"n.u.e.z.oXS.S.S.S.*.a #   O o   . @ i ;.M.v.c.P.L.I.L.<.<.,.P.}.].+XnXnX,X1XhXkXcXCXxXr.p 2 Z 3 = X 5 8 = o o 2 5 3 2 2 = o o o ",
"X.-.k.D.;XS.S.M.k.L a p O o 7 2 p w - +.v.l.l.<.P.I.<.<.<.<.T._.>X:XaXnXuXqXeXcXlXMXjX9.#   Z F = 2 = 5 2 = g 5 5 5 2 2 2 = = = ",
"H *.x.M.!.x.x.x.o.i p K 5 4 D C T k $ Y x.c.Y.l.,.j.#.<.T.R.R.T.].>XtXcXnXlXkXlXlXxX6X^ 3 o 8 9 2 4 X = 2 5 F 8 2 2 = = = = 2 2 ",
"Y -.o.o.t.t.@.t.J z k Z C 8 8 G j H - i k.m.m.Y.P.I.I.T._.}.L.j.P.Q.>XfXnXlXlXMXBXxX-XK #   : 8 5 % o = 5 5 4 2 X o o = = = = = ",
"z o.o.| o.} [ o.P a p j 8 2 7 C 5 l - - } v.Y./.^.~.I.L.L.L.<.#.#.l.].eXuX2X1XyXxXyXA.F # 2 v 6 7 5 2 5 4 = % % o % # o o o = = ",
"q H H z z z z  .y - - 5 5 = 6 M = 5 - @ x h.v.l.U.P.,.{ { { { ' ` ' j.U./.Y.k.XXhX6Xu.~ G F G M 7 7 7 7 5 % % % 8 8 5 5 = = = = ",
"q i q $ w d z  .s - # 3 3 = < 7 5 5 Z i s +.,.,.l.,.{ ` ' { { ..{ { h.Y.+X).m.-X6X-Xq.G 9.( v _ D A A A M 8 8 8 j j p 8 8 5 3 = ",
"k i - - k L  .| | k - = 2 % < 7 C F 9.K $ i o.h.l.,.#.h.P.l.j.l.P.P.+XqXkXlXrXhX6Xz.r.G 5.5.D Q 7.) ~ Q Q I I I C j 5 5 5 5 5 = ",
"k l u k | -.e.*.-.J 3 = 2 2 6 M F K 9.P $ s z [ ,.,.h.U.).Q.P.c.P.Y.:XeXlXmXkXxX3XZ A.9.M b W D ) Q I Q Q ~ ~ ( ~ T Z j 5 3 3 3 ",
"E E X.*.e.k.x.k.u.*.R T F j M G ~ F K 3 s o.z 0 ' ..h.c.W.U.l.j.,.,.Y.:XrXkXsX6X(.# n.f._ 7 B b g 7 g M C A F Q / ( &./ A p p j ",
"z.z.n.z.u.z.M.n.S.n.z.g.w.~ G G ( ~ K # P v.t.x d @.h.h.c.U.P.c.,.,.c.1XsXcXkX-XD.p q.J.G.s.W B 6 6 7 7 4 < 4 8 M ~ q.q.O.K K T ",
"D.D.D.S.x.z.u.e.z.e.i.z.y.9.~ G A l H + i S.!.@.i [ [ h.Y.W.c.W.W.c.:XeXuXhXlX;XD.8 w.C.&XF.C.V.W 7 7 O > 6 O M 1 D 9.6.m Z p p ",
"r.r.r.r.e.*.*.*.X.R O.9.O.( ) C 2 p k @ q k.W.k.@.r r x v.k.m.W.c.c.!.1XrXhX;XoXg.% ( F.G.s.C.$X&Xa.W B B 1   6 < G 7.~ o     , ",
"p p 3 3 p 5 p T R T T F Z G G 8 o 8 l - q o.W.W.W.} 0 r [ h.v.v.k.,.@.S.;X!.e.D.T 8 p.F.d.a.F.G.F.G.$XC.4.1 O 1 > 6 Q G 2 O X , ",
"K C X X K ^ K ^ O.^ K j 4 9 C C 4 j 3 u q J M.!.v.M.} r + x [ [ } [ x -.u.Y n.g.2 D f.G.7.a.F.B.$XZ.C.Z.G.C.8.B > 7 ) M O   X , ",
"q.&.p p r.x.0.^ S j 9 8 8 8 G ) 5 8 = 5 $ w t.m.k.W.W.@.} 0 0 0 x J L  .R / A.C < C d.H.8.a.C.s.C.p.B.G.G.8.s.f.! W ! > O O 6 O ",
"O.q.O.S K T j 3 5 3 2 8 C 9 9 F 2 8 p p $ $  .k.W.m.v.v.c.[ 0 0 d i u k l 0.I 4 7 ! s.V.4.s.V.8.d.7.C.Z.Z.d.f.d.F.f.p.b O > >   ",
"9.w.9.F 5 2 - = 5 8 5 5 8 2 o 9 2 9 C p 3 3 i  .h.h.h.U.l.c...r J P R ^ S ~ 5 ) D p.C.8.W B.s.4.C.d.Z.7.8.Z.&XG.&X&X=XF.! 6   O ",
"g.&.Z j G T T C 2 j 5 = 9 8 3 8 6 6 8 4 9 p + 0 [ W.tX,X/.,XeXv.x.;X3XD.~ < A D ) p.Z.8.4.s.8.8.B.7.s.N 7.G.5X=X=X&X=X7X5X&X) B ",
"( T ~ ( ( &.( G o 2 3 5 9 5 5 9 C : 9 5 C # @ y 0 Q.vXiX,X,XuX1X-X7XH.G < _ ! N 4.F.7.4.B.4.3.8.d.V ) ! 3.s.Z.=X4X*X&X5X7X7X5XC.",
"&.O.9.9.( ( F 9 4 9 9 3 5 4 2 2 C 6 7 < j 8 q i [ >XiXiX9X,XnXeXe.i.I Q Q w.7.p.f.7.W C.7.4.p.f.p.V N ! 8.B.G.*X&X&X*X&X&X*X5X4X",
") 5.( ( ) F 6 : 8 7 4 5 9 5 3 2 G 8 7 O 4 5 * 0 ,.>X].0X+X>XnXlXe.~ D ~ Q 5.7.s.a.N 7.&X8.4.a.f.p.W n ! p.f.G.&X*XF.Z.Z.Z.*X4XgX",
"F ( ) Q _ v : 2 7 6 4 5 9 9 5 2 G 8 4 O & ; @ r P.}._._.T.+XfXnX(.F 9.D Q 7.C.p.V W C.C.a.) 8.d.7.B B 7.p.p.C.F.$Xf.s.C.*X=X4XgX",
"~ 9.( F D 7 : 7 6 6 2 2 3 3 = o g 6 4 1 & ; q [ +XQ._.L.L.~.0XmXdXj ~ ~ ) d.f.Q V 7.f.3.4.4.p.p.N > W 7.d.d.4.7.a.p.a.8.Z.4X5XgX",
"( ( ~ D v < > 6 > o : 2 3 3 = # 8 4 4 g & & i k.>XQ.I.<.<.L.+XrXVX9.8 q.) 5.! Q 7.) 4.7.! p.f.7.N > ! p.C.F.7.4.4.! W W 7.F.*X5X",
"F G F F 8 6 7 b 7 7 8 5 9 3 3 3 8 7 4 g & & z Y.].}.L.L.#.L.~.2XVX;X9 7.) D 4.7.4.W W p.7.7.d.N N N d.Z.G.G.s.7.7.N B 3.3.7.C.%X",
"9 9 F ~ D D ) Q ) ~ _ G p 3 3 3 9 4 1 g X 5 | XX^.}.T.I.#.T.R.rXCXyXG C w.Q d.D D N W ! 7.N 7.7 N p.G.=X&XC.p.Q 4.7.p.C.8.7.C.C."
};
