/* XPM */
static char *_13f9ea2fb284ecbaf20916a9560b848HVzZWdBzUexIWBPi[] = {
/* columns rows colors chars-per-pixel */
"64 64 256 2 ",
"   c #170C04",
".  c #1B1206",
"X  c #15130B",
"o  c #1C140C",
"O  c #191608",
"+  c #1C1A13",
"@  c #1B1817",
"#  c #0D0902",
"$  c #230D01",
"%  c #2A0E01",
"&  c #23150B",
"*  c #241A0E",
"=  c #2B1A0C",
"-  c #291306",
";  c #321B0C",
":  c #371A0C",
">  c #251B13",
",  c #2B1D14",
"<  c #221E1A",
"1  c #281A16",
"2  c #351E13",
"3  c #2C2116",
"4  c #26221D",
"5  c #2C231B",
"6  c #262218",
"7  c #342315",
"8  c #33241B",
"9  c #33291E",
"0  c #3B2A1C",
"q  c #3B2317",
"w  c #211E21",
"e  c #2A2622",
"r  c #292625",
"t  c #332C23",
"y  c #3B2C22",
"u  c #392A25",
"i  c #3B3125",
"p  c #3B352B",
"a  c #3D3933",
"s  c #1F1D22",
"d  c #4E1B0D",
"f  c #432B1B",
"g  c #482819",
"h  c #562819",
"j  c #442D22",
"k  c #452D26",
"l  c #443224",
"z  c #4B3324",
"x  c #44332B",
"c  c #4C342A",
"v  c #48392C",
"b  c #543C2D",
"n  c #543628",
"m  c #473B32",
"M  c #573D32",
"N  c #663525",
"B  c #6A3D33",
"V  c #733E32",
"C  c #662F1B",
"Z  c #4E4438",
"A  c #534335",
"S  c #5B4333",
"D  c #58473B",
"F  c #59402E",
"G  c #644B3C",
"H  c #684738",
"J  c #764838",
"K  c #724A34",
"L  c #584C43",
"P  c #575048",
"I  c #644D42",
"U  c #6A4E43",
"Y  c #6C5444",
"T  c #63554B",
"R  c #6E5C4D",
"E  c #685749",
"W  c #735544",
"Q  c #715D4D",
"!  c #795848",
"~  c #6D5D52",
"^  c #675E57",
"/  c #725F53",
"(  c #7C5E52",
")  c #774D44",
"_  c #77604D",
"`  c #6A635A",
"'  c #746254",
"]  c #7C6355",
"[  c #75645A",
"{  c #7A665A",
"}  c #76695C",
"|  c #7C6A5C",
" . c #7D6855",
".. c #7D6D62",
"X. c #756B61",
"o. c #7E7165",
"O. c #7D766B",
"+. c #7D7572",
"@. c #824D3B",
"#. c #825D4B",
"$. c #885846",
"%. c #955B4A",
"&. c #86574E",
"*. c #89624C",
"=. c #92644C",
"-. c #846554",
";. c #8B6452",
":. c #83655A",
">. c #836B5D",
",. c #8C6C5C",
"<. c #886856",
"1. c #936554",
"2. c #926C5B",
"3. c #996856",
"4. c #8A715C",
"5. c #99735B",
"6. c #A76B5C",
"7. c #A4745C",
"8. c #826E62",
"9. c #8A6D63",
"0. c #837265",
"q. c #8B7264",
"w. c #84746A",
"e. c #8A786A",
"r. c #937464",
"t. c #9A7A6A",
"y. c #987667",
"u. c #897D71",
"i. c #9B7D73",
"p. c #956D62",
"a. c #AC7C65",
"s. c #A47C6B",
"d. c #A77866",
"f. c #B47C6D",
"g. c #B77968",
"h. c #A77D72",
"j. c #BD7F70",
"k. c #998578",
"l. c #8E8577",
"z. c #AC826B",
"x. c #A7826B",
"c. c #B2826D",
"v. c #BB846D",
"b. c #A48373",
"n. c #AB8474",
"m. c #AD8B7B",
"M. c #A88978",
"N. c #BB8473",
"B. c #B58A73",
"V. c #BC8B75",
"C. c #B48C7C",
"Z. c #BC8D7B",
"A. c #B38574",
"S. c #BB927D",
"D. c #B3917E",
"F. c #A5907D",
"G. c #C48B76",
"H. c #C38C7C",
"J. c #C68978",
"K. c #C79379",
"L. c #D39A7A",
"P. c #D28E7B",
"I. c #989188",
"U. c #B58E82",
"Y. c #A79386",
"T. c #BC9483",
"R. c #B89685",
"E. c #BB9D92",
"W. c #A99286",
"Q. c #ACA79C",
"!. c #B7A798",
"~. c #BCB49F",
"^. c #B4ADA2",
"/. c #BCB5AA",
"(. c #B8B4A6",
"). c #C39482",
"_. c #CC9483",
"`. c #C59B84",
"'. c #CB9B86",
"]. c #C49B8A",
"[. c #CB9B8C",
"{. c #CB9689",
"}. c #D29483",
"|. c #D39D8C",
" X c #D89B87",
".X c #CF998C",
"XX c #CBA28D",
"oX c #C5A18E",
"OX c #D8A48A",
"+X c #CDA393",
"@X c #C9A999",
"#X c #D4A494",
"$X c #DCA494",
"%X c #DCAC94",
"&X c #DCAB9B",
"*X c #D6A998",
"=X c #DDB096",
"-X c #E4A88A",
";X c #E3AC9C",
":X c #E6A997",
">X c #E3B29C",
",X c #E8B598",
"<X c #F3B79B",
"1X c #F0AE9D",
"2X c #C4BCAC",
"3X c #C5B8A6",
"4X c #DBB3A3",
"5X c #C6BEB2",
"6X c #DFAFA1",
"7X c #E8AEA1",
"8X c #ECB5A4",
"9X c #EBBCA4",
"0X c #E8B8A7",
"qX c #F4BAA3",
"wX c #F5BAA8",
"eX c #F0BFB1",
"rX c #CDCABB",
"tX c #C9C3B6",
"yX c #D4C9BB",
"uX c #D3D1BE",
"iX c #F5C4A5",
"pX c #F3C3AB",
"aX c #F9C5AB",
"sX c #FCC9AB",
"dX c #F9C3A6",
"fX c #F3C4B1",
"gX c #FCC8B4",
"hX c #EDC2B1",
"jX c #D4CEC4",
"kX c #D5D3C3",
"lX c #DEDCCA",
"zX c #DAD8C5",
"xX c #D4CFC9",
"cX c #E1DECD",
"vX c #E5D5CA",
"bX c #FCD7CA",
"nX c #EFDDD1",
"mX c #E3E3CE",
"MX c #E5E5D3",
"NX c #EAE5D6",
"BX c #E7E8D5",
"VX c #EAE9D6",
"CX c #E5E3DC",
"ZX c #EAE6DB",
"AX c #ECEADD",
"SX c #E7E8D8",
"DX c #F0EDDF",
"FX c #F6E7DC",
"GX c #FFE0CD",
"HX c #EAE7E1",
"JX c #EDEBE1",
"KX c #F2EDE2",
"LX c #F3EDE6",
"PX c #F4F1E5",
"IX c #FAF4EA",
"UX c #F7F4E9",
/* pixels */
"NXNXNXNXVXVXVXVXVXVXVXZXHXHXAXAXJXZXZXVXHXHXHXHXZXZXZXNXZXNXyX3XtX/.3X3X!.q.Y G Y G S G ! Q Y E R R R R R R R R Q Q R Q / ' ' [ ",
"NXNXNXNXVXVXVXVXVXVXAXZXHXHXAXAXVXCXZXJXHXCXZXHXJXJXKXNXNXmXyX2X2X~.3X3X!.q.Q Y Y G b G Q Q Q ' R R R R R R R R Q Q Q Q ' ' ' [ ",
"NXNXNXNXVXVXZXAXVXVXZXAXHXHXHXAXLXZXCXHXJXHXHXHXCXZXJXNXNXcXyXtX2X2X2X2X!.{ Y Y U Y n Y Q Y E Y R R R R R Q R R R R R Q ' ' ' [ ",
"NXNXNXNXVXZXAXAXVXVXAXAXHXHXHXHXJXHXHXHXHXHXCXCXJXZXZXVXKXNXtX(.2X2X(.5X3Xq.! G U W n ! ] ! Q Q R R R Q Q Q Q R R R R ' ' ' [ [ ",
"NXNXNXVXVXVXZXAXVXAXAXAXJXJXAXAXcXHXLXJXHXHXJXJXCXCXZXVXAXNXjXtX2Xk.T ' l.8.>.Y Y W z ! ] / Q Q R R R R Q Q Q Q R Q ' ' ' ' ' ' ",
"NXNXVXVXVXZXAXAXAXAXAXAXJXJXJXAXLXJXHXCXCXHXHXCXJXHXJXJXJXrXI.X.Z D A A b q v D I U b / >.' R Q R R R R R R Q _ Q ' ' ' ' ' ' ' ",
"NXNXZXZXZXZXAXAXAXAXAXAXJXJXAXZXJXCXCXJXUXLXJXHXxXxXtXI.` m t m y 9 9 8 y , 7 0 c v c E { ~ E ' R R R R R R _ ' ' ' ' ' ' [ [ [ ",
"NXNXZXZXAXAXAXAXAXAXAXAXJXJXHXZXHXJXUXJX5XI.` ` P a e + + > > 5 6 6 9 3 9 3 8 y y 7 2 0 x 0 y A R ~ ~ R R R R ' ' ' ' ' [ [ [ [ ",
"VXVXVXVXVXZXAXAXAXVXPXAXJXJXJXCXLXxXjXQ.T o < t m a p 4 + + + o * 5 t y y 9 8 t x m x , - = , & , v I ' ' E ' R ' ' ' ' ' ' [ [ ",
"VXVXVXVXVXZXAXAXAXKXAXAXUXZXZXUXtX+.L p e > < o 5 5 < + o X o X o . o > 5 5 * . 1 t v p 8 * * 6 * 3 i L ' ' ' R ' ' ' ' ' ' [ [ ",
"VXVXVXVXVXZXAXAXVXKXKXKXJXLXCX/.^ p 5 < < 1 5 < 1 1 > o X X X   o o o 5 p m p t * > 9 i i 5 * . * . * v E ' R / ' ' ' ' ' ' [ | ",
"VXVXVXVXZXZXAXAXVXKXKXAXJXCXQ.L e > 8 i u 8 t 8 1 1 > * > 1 < 6 5 5 t i m m x x 9 6 * > 9 i 3 . * . * 8 D ' R ' ' ' ' ' ' ' } { ",
"VXVXVXAXAXAXAXAXAXKXCXVXIX/.m 6 t e u m x x k u u 8 , 1 1 6 e t 5 9 9 5 9 9 5 9 9 5 > * * 3 3 3 . * > . y ~ ' Q ' ' ' ' ' ' [ } ",
"VXVXAXAXZXZXAXAXAXVXJXLXZXu.t m P L m m m D L L M x u 8 , 1 < 5 9 8 1 > 1 1 , 1 > & & * & . & , o > *   3 T { R ' ' ' ' ' ' [ | ",
"VXVXAXAXZXZXAXAXAXVXPXUXjXP m x m k 1 1 8 D I I I D c x k u u i x i 9 , , > > , y 9 8 7 8 , = * > * * & * A { / ' ' ' ' ' ' } | ",
"AXAXAXAXZXZXAXAXAXKXVXJXtXp t > 1 k D / ] r.y.t.] Q U G M c c c x c l 0 q q j M G I G b z z j 7 * & * 3 & 0 ~ ' ' ' ' ' ' ' { | ",
"AXAXAXAXAXAXAXAXAXVXAXUX^.p 6 & D y.U.R.`.S.S.T.C.n.y.;.! ! ) ) U G H W #.,.s.n.n.n.y.;.#.*.W H F 0 0 0 * * T } ' ' ] ] { { { { ",
"AXAXAXAXAXAXAXAXAXJXAXPX5XZ 5 9 >.U.].].'.'.OX%X&X&X*X[.[.[.{.].C.n.B.T.).|.&X>X:X%X'.V.c.z.7.<.W S l 0 > * T [ ' ' ' ] { { { { ",
"AXAXAXAXAXAXAXJXAXPXAXKXrXZ 6 m e.R.].XXOXOX%X>X0X0XeXhXeXeXfXeX0X6X7X0X8X8XqXqXqX1X-X XK.K.v.z.r.:.A 0 , > T [ ' ' { { { { | | ",
"AXAXAXAXAXAXAXJXAXJXKXKXtXm * A >.m.T.XX%XOXOX%X>X9XfXfXfXfXfXfXfXpXpXpXwX8X1X1X1X:X-X X XL.G.V.B.b.U l 7 8 ~ [ [ [ { { { { | | ",
"AXAXAXAXAXAXAXJXJXVXKXPX/.9 > A 4.M.D.oX%X%X%X>X,X9XpXpXpXpXaXaXgXaXaXaXwXqXqX<X<X:X-X-XOXL.K.G.B.M.Q z y y ~ [ [ [ { { | | ....",
"AXAXAXAXAXAXAXJXPXVXKXPX^.6 5 A :.M.S.`.%X%X:X:X,X9XpXpXpXpXaXaXsXpXpXdXqX<X<X<X1X-X-X-XOXL.K.G.B.b.W z k m / [ [ [ | { | | ....",
"AXAXAXAXAXAXJXJXKXAXAXUX5X6 9 v ! x.S.`.OX%X:X%X,XiXpXpXpXaXsXaXsXsXaXdX<X<X<X,X-X-X-X-XOXL.L.K.B.y.W f l D ' [ [ { | | | | ....",
"AXAXAXAXAXAXAXJXAXPXVXIXjX9 9 i W x.S.`.OX%X,X:X,X9XpXpXpXaXdXiXiXiXiXiX<X<X<X<X-X-X-XOXOXL.K.v.S.5.G f j D / [ [ } } | | | ....",
"AXAXAXAXAXAXAXAXPXMXPXPXkXt > 9 Y b.C.`.%XOX>X,X,X9XpXgXpXiXiXsXiXiXiXiXiXqX<X,X,X-XOX-XOXL.K.K.B.5.H f q A ' [ { | | | | ......",
"AXAXAXAXAXAXJXJXNXPXPXAXcXp > y G t.D.T.XX%X>X%X9XpXpXpXgXgXdXdXsXgXsXiXqX<XqXiX,X-X,XOX XOXK.v.z.<.F j 0 A [ } [ | | | | ......",
"AXAXAXAXJXJXJXJXAXPXKXKXZXp . 9 I r.m.R.XX=X0X9X0XhXfXfX9XpXgXgXdXdXdXaXgXgXdXqXqX8X:X}.-XOXG.G.d.! z q 2 x ' [ [ { | { | ......",
"AXAXAXAXJXJXJXJXPXVXKXPXDXZ   , L k.F.m.R.R.].T.oX+X4XfXgXgXpX9XgXgXgXaXwX9XwXwX;X>X;X$XOX_.H.N.x._ z q 2 i [ | [ | | { | ......",
"AXAXAXJXAXAXAXAXAXAXUXAXKX`   5 w.!.0.S g q z n g z n ! C.*X&X&X>X&X&X7X6X*X[.).T.C.Z.*X].).#Xs.x.-.c 7 7 y [ [ [ | | { | | ....",
"AXAXAXJXAXAXAXAXAXJXPXVXIXX.. p ` ` y l D b c f f ; 2 ; q -.*X4X4X4X*X+Xn.( n : : g : G ! G 2.R.M.r.D = > 8 [ [ } { | { | >.8...",
"AXAXAXJXAXAXAXAXPXAXKXPXIXI.L m 5 5 Z T D D ~ 0.w.~ R M = j ( -.b.b.k.>.S 7 - = - 7 0 l l $ ;  .k.M.E 7 , 5 X...} { | { { | | | ",
"AXAXAXJXJXAXAXAXKXAXUXPXDXtX!.x . 6 O.o.Z ' ..[ ' ~ x k U z $ q z q = 2 0 0 7 3 i 3 D E E ' A = U e.E 7 8 8 ` [ [ | | { { | | | ",
"AXAXAXAXDXKXJXJXPXAXKXKX!.k.q.; 0 3 ..' D v l ; q c j n b G ; >.4XC.f : j l = = 0 x 0 y A ' T v * * y v * 7 ~ { [ } ......0.8.>.",
"AXAXAXAXDXDXJXJXJXJXJXNXk.q.<.n R x E E D 7 z U M M ! :.S W f R.hX4XB g r.S D M z 2 0 2 - D R A . . 8 { l v Q { [ ..o.....o.0.| ",
"AXAXAXAXAXDXJXJXPXUXPXmX' r.,.W F.S Q e.>.>.,.y.y.b.U.p.T.-.n *X0X7X$.H 2.-.y.:.( G ( G : n ] / 9 L S b S _ F.Y.k.| ~ ..e.o.| 0.",
"AXAXAXAXDXDXJXJXJXLXLXjX] W.s.-.R.4.-.m.t.C.C.C.T.T.A.].].! 1.0X7X$X6.N S.Z.s.C.U.h.n.r.;.#.,.! A 0.G f Y R.F.e.Y.Y.u.X.[ o.0.| ",
"HXHXAXAXAXDXJXKXJXZXIXvXk.@Xm.2.b.R.#.n.+X+X*X*X[.).[.7X#XJ ).>XwX XG.J a.>X'.Z.Z.).Z.Z.C.s.s.H W W <.W -.t.] -.Q u.Y.k.w.0.o.| ",
"AXAXAXAXAXKXJXJXUXZXIXnXE.E.2.;.C.T.B.5.#X0X;X#X7XwXwX0X@.3.#X8X1XP.}.g.J N.8X;X|.$X|.|.[.'.V.F ! ! D.! ;.<.W 4.I D T o.u.o...0.",
"AXAXAXAXAXDXJXJXKXVXKXvXE.b.K $.a.z.*Xa.f.0XwXgX8X8XN.$.3.$X&X8X1X}. XJ.g.$.G.wXwX8X:X:X;X%Xa.J 1.y.s.#.#.XX;.! q.' D b T o.w.} ",
"AXAXZXAXAXDXJXJXKXLXKXvXE.m.J ;.d.`.Z.|.f.d.d.d.d.d.f.J.$X7X$X8XqX1X XJ.}.g.%.%. X1XwX8X:Xv.J c.S.d.z.5.$.XXB.-.] 8.0...} ..o.w.",
"AXAXAXAXAXAXAXAXKXZXFXvXE.y.y.1.s.T.).&X9X&X|.{.;XeX8X|.{..X&X8XwX$X}.J.K.K.:X}.g.6.$.%.6.%.d.A.Z.d.c.a.K S.].t.q.>.| ..w.w.| 0.",
"AXAXAXAXAXAXAXAXJXZXIXvXR.y.s.1.s.T.].*X0X9XgXgXeXZ.f.d.&.V ) h.f.g.J d @.3.N.|.1XwX:XJ.G.H.G._.B.B.a.d.K =.`.x.,.>.8...0.o.| 0.",
"AXAXAXAXAXAXAXAXJXCXIXyXW.b.n.;.s.T.].[.*X&X7X&XN.d.U.d.J B B J B d d N V 1.H.f.f.|.eX8X;X;X{.).B.V.a.7.$.@.Z.D.-.:.8.....0...0.",
"AXAXZXAXZXZXVXVXKXNXDXyXM.m.n.#.s.C.T.T.XX[.).d.3.A.+Xp.J &.! n h d B 1.;.1.Z._.f.6.H.:X$X|._.).V.a.c.3.3.7.z.`.<.] 8.8...0.0.0.",
"AXAXZXAXVXVXSXSXJXVXCXyXk.W.n.#.b.n.C.h.T.Z.h.3.T.C.s.;.) H H B H J H ! #.J 1.c.'.f.6.N._.H.H.Z.B.d.a.=.7.K.d.T.r.:.>.8.8.e.0.0.",
"AXVXVXVXVXVXSXNXCXVXNXvXY.M.M.;.n.n.s.#.y.y.3.1.p.3.J ! <.:.r.U.R.h.t.p.! ! 1.@.1.N.6.6.H.V.c.c.z.c.d.=.3.`.c.T.b.>.>.8.8.0.8.>.",
"AXVXVXVXVXVXNXNXMXMXcXvX!.b.m.;.s.m.s.! y.d.1.$.H K K J ,.h.U.@XE.@XoXb.,.K K N N %.%.%.d.N.a.d.d.c.a.=.=.K.Z.].m.>.:.0.8.8.8.8.",
"AXVXVXVXVXVXNXNXMXlXkXkX5Xk.W.] b.T.B.#.n.z.J C d d ) C.eXbXbXFXGXbXbXbXGX*Xz.J h d C @.3.V.c.=.5.5.z.$.$.`.Z.[.m.:.:.q.8.8.8.q.",
"SXVXBXNXNXVXNXMXlXkXrXtXyX!.e.] t.T.T.2.B.Z.*.3.d.y.C.n.&.J B V h h h N J 3.f.H.3.V @.J $.Z.V.=.7.a.7.$.$.`.n.m.b.<.>.q.>.8.0.w.",
"BXVXBXNXNXNXMXcXzXrXtX/.5X5XQ.| t.E.oXd.S.'.A.).+XT.T.h.&.$.$.%.%.3.6.3.3.3.d.V.{.J.{.f.d.H.V.7.7.z.a.=.1.].A.n.m.9.9.9.>.8.0.0.",
"VXVXBXMXMXMXlXzXkX5X2X2X/.2X2Xu.r.].].z.B.'.).*X#X).[.#X#X$X;X;X7X8X7X;X:X|.|.|.}.}.$X_.G.|.V.7.z.x.5.*.#.T.T.U.n.9.9.8.>.0.8...",
"BXBXNXMXMXmXlXkXrX2X/.5X/.^./.l.q.T.).B.c.K.K.'.&X[.[.[.{.|. X X}._.J.J..X_.H.J.J.}. X}.K.|.c.3.z.d.2.J K x.m.U.i.>.8.8.8.0.o.0.",
"MXBXMXmXmXlXzXuXtXtX(.^./././.u.( s.S.S.c.B.c.V.%X|.Z.N.f.j.j.g.6.6.6.g.j.v.N.J.J. X X Xv.v.7.=.x.y.5.W H ,.r.y.9.{ 8.8.0.0.o.w.",
"mXmXmXmXlXzXkXrX/.2X^.Q./.^.(.Y.R -.m.`.c.d.7.c.'.#X'._.H.N.j.d.6.d.g.g.N.v.v.J.}. X}.G.g.7.5.3.5.4.<.W G ] ] { { { 0.8.0.0...w.",
"mXmXmXmXlXzXrXtX/.^.^.^.(.Q.^.^./ G r.C.n.d.5.a.K.#X#X*X;X;X;X:X$X$X$X$X$X%X:X:X:X XK.V.c.5.3.;.4.-.W G Y { >.{ { | 0...0.w...w.",
"mXmXmXlXzXuXrXtX(.^./.Q.Q././.Y.T 7 G <.t.y.2.5.A.[.+X&X0X&X&X#X$X&X*X[.#X*X&X;X;X'.).S.z.1.2.<.<._ G F Q >.| { | | 8.| 0.e...0.",
"mXmXmXmXcXkXrX/.(.Q.Q.(.(.I.^ < t 5 y I :.W *.*.M.D.D.R.T.T.+X[.+XT.C.T.T.T.T.S.Z.C.s.<.r.W 4._ G G b G q.8.8.| ..8.0.8.8.8.0.0.",
"mXzXmXMXuXtXrXtXQ.^./.I.L + X e p e > 0 c F S W ] r.r.q.q.t.m.y.i.t.y.r.r.r.y.5.2.*.( W Y S S D v l l R k...} ..} ..8.8.0.w.0.8.",
"mXVXmXkXzXkXtX(.tXI.P 6 + e r @ r r 4 > = f f n n S S S S U ! G M n c c b G G M g g g f q l 9 v 0 b D T } ' ....8.0.w.8.8.8.0.q.",
"mXzXmXlXrXkXkX^.P e + e r @ @ < @ t L Z v f f : ; % % - - - - $ = $ $ $ $ ; ; % % % : - - 7 = 8 8 y D ' l.w.X.[ [ ..0.0.0.0.w.w.",
"mXVXlXkXlX2X` 6 6 4 e 4 @ r r r @ t L I.k.q.r.-.G M M b z j q ; $ $ $ $ $ % q z M H H n b , * . 1 9 9 & p ^ O.O.w.w.......w.w.w.",
"cXlXAXzXO.6 X 6 e + @ r r @ @ w + o * Y.@X!.oXoXC.m.m.k.t.y.:.Y c q ; ; ; z W ,.y.y.9.,.y.2 & . . # X X o X t P ^ X.w.w.w.8.0.0.",
"PXzXl.p O + 4 4 4 4 r @ @ r r w t >   { @X@X+X+XT.m.U.b.i.i.9.] { I z f n Y ,.r.s.s.p.r.M.2   & > X + X X X X   + p P X.w.e.e.e.",
"l.a   O 6 6 6 4 4 < w r s s r w < 1 $ j @X*X+XXX[.n.n.b.i.t.9.9.] Q Y G W -.,.;.y.s.2.2.M.q   & o # + X X + + + + X   6 D ..e.e."
};
