/* XPM */
static char *fffabe9251b8414ea257279f3de647b7uINcEyI1hsqzrcgW[] = {
/* columns rows colors chars-per-pixel */
"64 64 256 2 ",
"   c #0B080E",
".  c #16090B",
"X  c #0D0B14",
"o  c #0E0E19",
"O  c #0D0618",
"+  c #120C15",
"@  c #130E1A",
"#  c #180817",
"$  c #13121D",
"%  c #1B1617",
"&  c #151410",
"*  c #25010C",
"=  c #260716",
"-  c #241919",
";  c #360E15",
":  c #1D2314",
">  c #1D240E",
",  c #2B251C",
"<  c #2C2C1C",
"1  c #272717",
"2  c #34291C",
"3  c #2D321B",
"4  c #2C3415",
"5  c #35361A",
"6  c #27280C",
"7  c #171624",
"8  c #1A1625",
"9  c #1A1826",
"0  c #1A162A",
"q  c #1C1B2B",
"w  c #16162A",
"e  c #1E1C32",
"r  c #1A1734",
"t  c #150E21",
"y  c #2A1D22",
"u  c #211D2E",
"i  c #271826",
"p  c #371A26",
"a  c #221D32",
"s  c #251A38",
"d  c #34162F",
"f  c #2D2323",
"g  c #2D2C23",
"h  c #282827",
"j  c #332C24",
"k  c #3A2D24",
"l  c #32242A",
"z  c #382829",
"x  c #2D3323",
"c  c #2D352A",
"v  c #333325",
"b  c #3A3424",
"n  c #353A24",
"m  c #34332B",
"M  c #3B332C",
"N  c #343A2C",
"B  c #3C3B2C",
"V  c #3A3B24",
"C  c #242135",
"Z  c #262339",
"A  c #29263B",
"S  c #2C2A3E",
"D  c #2B2433",
"F  c #372935",
"G  c #3C3334",
"H  c #3B3B32",
"J  c #3C3B3B",
"K  c #373537",
"L  c #2F3331",
"P  c #1F2031",
"I  c #550213",
"U  c #4C0B14",
"Y  c #68000C",
"T  c #7C010D",
"R  c #76000C",
"E  c #660416",
"W  c #790415",
"Q  c #4E341A",
"!  c #4F182A",
"~  c #6D182E",
"^  c #462829",
"/  c #423B2C",
"(  c #453729",
")  c #573528",
"_  c #482B36",
"`  c #592A34",
"'  c #423434",
"]  c #4B3334",
"[  c #433C33",
"{  c #443C3B",
"}  c #49383A",
"|  c #563739",
" . c #542829",
".. c #64333C",
"X. c #6D2A32",
"o. c #394217",
"O. c #3D422C",
"+. c #3D4225",
"@. c #3D4234",
"#. c #3C453A",
"$. c #3D503E",
"%. c #43432D",
"&. c #474928",
"*. c #434334",
"=. c #43433A",
"-. c #4A453C",
";. c #4B4B3C",
":. c #474937",
">. c #55473B",
",. c #505037",
"<. c #56441A",
"1. c #1D2345",
"2. c #2E2B42",
"3. c #242747",
"4. c #312E44",
"5. c #362A47",
"6. c #333145",
"7. c #3C3C43",
"8. c #35344A",
"9. c #3A374B",
"0. c #3B3A53",
"q. c #333257",
"w. c #2B2E5D",
"e. c #452A44",
"r. c #483B44",
"t. c #553B42",
"y. c #583A48",
"u. c #463752",
"i. c #542855",
"p. c #733747",
"a. c #6A3149",
"s. c #52325C",
"d. c #3E4144",
"f. c #30415E",
"g. c #4B4C43",
"h. c #474647",
"j. c #544444",
"k. c #5B4245",
"l. c #534C4B",
"z. c #584949",
"x. c #4A5548",
"c. c #54534C",
"v. c #595447",
"b. c #464557",
"n. c #584953",
"m. c #4D5455",
"M. c #595655",
"N. c #65484C",
"B. c #76424D",
"V. c #66544B",
"C. c #684B54",
"Z. c #784A55",
"A. c #635B5B",
"S. c #685558",
"D. c #77555B",
"F. c #576257",
"G. c #596248",
"H. c #66655A",
"J. c #66664F",
"K. c #514E6B",
"L. c #695A66",
"P. c #765965",
"I. c #6D5776",
"U. c #5E6B62",
"Y. c #686666",
"T. c #786469",
"R. c #7A6776",
"E. c #6D726E",
"W. c #83010D",
"Q. c #860215",
"!. c #900111",
"~. c #8A182F",
"^. c #8B2C4C",
"/. c #B23C61",
"(. c #A0375F",
"). c #EC315F",
"_. c #86575D",
"`. c #884954",
"'. c #845C63",
"]. c #895B66",
"[. c #945967",
"{. c #835C75",
"}. c #944C68",
"|. c #A55577",
" X c #AD5073",
".X c #8B656B",
"XX c #896568",
"oX c #94656B",
"OX c #8A6977",
"+X c #946C73",
"@X c #986876",
"#X c #87747A",
"$X c #997379",
"%X c #A56A79",
"&X c #A7737D",
"*X c #A1686F",
"=X c #CA4979",
"-X c #F34673",
";X c #374C8C",
":X c #7B6B81",
">X c #535595",
",X c #897884",
"<X c #9A7786",
"1X c #916B84",
"2X c #A96B84",
"3X c #AA7787",
"4X c #B4788A",
"5X c #A77A93",
"6X c #B87B94",
"7X c #B16D86",
"8X c #AD5F81",
"9X c #CB7A99",
"0X c #CF7DA4",
"qX c #E86C9D",
"wX c #6A81BA",
"eX c #95858E",
"rX c #A7838A",
"tX c #B3828C",
"yX c #BD849B",
"uX c #B88697",
"iX c #AF8A98",
"pX c #B48EA3",
"aX c #C4879B",
"sX c #C88D9E",
"dX c #C38CA4",
"fX c #CB8AA6",
"gX c #C994A8",
"hX c #D393AB",
"jX c #D999B6",
"kX c #D18CAB",
"lX c #E498BA",
"zX c #EB90B6",
"xX c #D7A4B7",
"cX c #C7A6B2",
"vX c #E3A2BC",
"bX c #E99BC3",
"nX c #D6B0C8",
"mX c #EAA7C8",
"MX c #F2A8CC",
"NX c #F3ACD3",
"BX c #F8AED7",
"VX c #E8B4D3",
"CX c #F7B6D9",
"ZX c #EBB3CD",
"AX c #FABBE4",
"SX c #D9CADA",
"DX c #FBC6E8",
"FX c #FCCDF2",
"GX c #FCD7F7",
"HX c #EED4E8",
"JX c #FEE3FE",
"KX c #FDEBFD",
"LX c #FCE1F7",
"PX c #FFF8FF",
"IX c #F5C1DE",
"UX c #869FE6",
/* pixels */
"v.v N < b k *.;.#.x.E.G.5 n :.b k #XeXY.N M G A.,XeXeXeXeX,X,X,XR.R.,XT.l.{ @.;.N : g.@.1 z } j.{ ^ ` D.H.v.| ^ / +.+.( | V.D.>.",
"J.v.x < < , ;.F.N N #.: n 5 < ( , A.R.A.G { T.eXeX,X,X,XR.R.R.L.y.y.n.R.,XR.Y.E.x.#.#.h , y f k. .....| v.H.j.] B H B ( >.V.XX>.",
"%.v.1 1 < 3 < : , , % . j %.%.M 2 k - G f T.iX,X,X,XOXS.P.OX1X<X<X5X5XP.P.,X,XY.x.g.F.M.H l z S.] ` ^ m [ >.} y [ =.h M ] S.V.M ",
"o.v , M m @.B 2 ) Q 2 - j m =.M >.k ' ' S.,XT.#X#XP.C.].2XdXjXmXVXAXDXIX5XP.,XT.J J U.F.z...` n.-.] k h , , ' t.{ M.h.B [ V.H.:.",
"x B - j *.;.*.( ) Q , % 2 *.c.-.>.^ ^ } #XT.R.R.C.B.@XdXjXNXCXAXDXFXGXGXGXcXOX<XL.L.E.U.k...` n.=.v.>.m h D G n.h.A.M.g.*.V.v.o.",
"% [ 1 5 V ,.:.< 6 2 2 : V %.*.< 2 , ^ T.#XT.P.t.B.6XjXCXAXAXAXAXAXDXGXGXGXFXxXOXT.T.,XY.j.c.M.Y.M.A.j.m h ' ' M.{ M.n.O.5 ;.,.o.",
"H c.< 5 &.&.< N n V *.1 b ,.& - k z P.#XT.S._ Z.kXmXCXAXCXAXAXAXCXAXDXFXFXFXDXcX{.P.T.L.l.M J M.J h [ l.l ^ >.z.J c.l.H V < b 5 ",
"g.Y.H < o.5 V O.n @.v *.*.,.[ z.^ N.OXT.C.^ Z.gXvXNXBXNXCXCXCXAXCXCXCXBXCXAXDXDXpXD.T.Y.n.M.g.l.h g M z.l z -.=.L { c.m 3 v v O.",
"H E.x.% 1 < v 3 v ;.:.3 &.G.H.z.N.P.S.C.^ ..yXhXkXjXbXmXMXBXBXBXBXBXNXbXlXjXmXZXZX@XP.#XM.l.g.l.G #.H | l y -.V.[ 2 l.x 5 m H v ",
"- m =.1 . , b / ;.c.M.:.5 3 N M.S.z.k._ ` 3XdXgXkXfXjXjXmXBXBXCXNXNXMXBXMXmXmXvXZXpXz.L.T.{ f l.J J @.z.' l 2 v.|  .>.%.n #.h.l.",
"g [ < n 1 %.%.%./ M.M.M.g.x.l.L.z.} ] ^ .XgXgXdXkXfXjXbXmXmXMXBXMXMXBXAXAXAXDXDXZXxXP.j.A.M.{ M.A.j.] j.A.t.^ >.| ] >.l.J m.M.Y.",
"A.v.O.O.:.G.+.%./ H.Y.v.( z z.A.} z ] y.3XgXgXjXmXMXBXBXNXmXMXMXNXBXbXMXVXVXnXcXnXxXOXk.j.S.z.v.A...! M.E.z. . .n.M.M.A.A.K.m.m.",
"/ v.*.:.@.;.B V ;.M.H.2 ; z S.z.M z | ].tXgXxXVXVXVXmXmXbXjXbXbXmXjXfXdX5X{.C.R.1XpXOXn.} r.j.-.B ^ ] { M.h.r.r.A.y.| S.n.m.m.m.",
"V %.:.B @.< v -.g.=.c.( | j.A.} l l C.+X3XxXnX5X{.P.{.1X5XyXfXkXdX5X2XP.u.u.I.:X:XeX,Xk.} G { v.*.M ] f F r.r.J C.| ^ z.M.b.h.h.",
"%.n O.: 1 H [ v.v.g g.*.1 [ j.z l G S.+X3XpXI.K.>X>XK.u.C.{.5X5X5XOXs.b.wXUXf.r 5.u.L.r.} G M g.x.' z f G r.M M t.S.h.z.M.b.h.h.",
"V 1 x : 1 =.M.v.*.@.g.=.;.[ z - l } y.$XOXu.f.;X>X;X;Xq.2.5.u.u.u.5.s f.;X;X1.q Z r a F G F G l.F.] 2 m G } k ( >.A.7.j.l.7.m.b.",
"B > x #.x #.M.B O.x.c.h.g.j - - F F z.P.i w 3.1.1.1.3.3.3.Z i d d u Z 3.q.f.1.w e e a u D l ' h.Y.=.j g l } G -.H.A.j.] S.h.b.h.",
"[ 3 O.H H g.g.*.g.c.M.J 1 b , y G l G i 7 q q q q q q r r e d pX5Xi Z e r q.0.e e 0 q C i y G =.H.M.H g h ' ' K l.Y.] ! | l.b.h.",
"/ > o.5 v *.x B *.=.N g g B - y l y % u q 7 7 7 7 7 w w q 8 P.IXDXOX8 a q 1.1.w e q C u % y f B :.M.h.1 m } z F } S.n.} z.n.h.h.",
">.3 o.5 5 &.+.5 4 4 6 < ;.[ 1 - y % % i D 7 7 7 7 7 q C D y.VXFXFXDX<XF s Z e q a a r.n.- y j %.+.m =.H =.j.f g p t.M.J c.M.h.h.",
"v.V +.n V G.J.5 5 +.4 n / %.b % - % l y.F D i i 0 a D d _ gXCXAXDXDXmX@X_ F F F e.n.OX<Xi - M ,.+.3 v g.-.M j , - j [ ^ | >.=.{ ",
"[ B x n %.+.N > x H #.@.b B m % % % } .XD.t._ _ p d _ C.@X6XMXAXDXDXgX[.uX4X<X<X5XrXiX<XF y g V 1 2 v v [ M b *.v 6 =. .) ,.&.&.",
"b V 4 5 B v @.N c L g H M j x f & & } +X+XXXD.].@X3XaXfX[.7XjXNXCXBXMX2X%XhXvXmXxXgXpXrXr.l , 3 2 k k j m M B v.V k [ 5 5 <.o.o.",
"M / 5 4 5 M 7.d.L h v M G j N g & + z +X&X3X3XyXhXxXhX7X}.aXhXjXhX9XaX7X`.&XaXhXgXsXpXrXt.f j < j M k k [ / k ;.=.( ] b 4 >.&.n ",
", b :.4 n x h h G G m m ' M ;.b & & l XX3XtXuXaXaX6X&X[._.*X[.[.[.`.p.[.]._.&X4XtXrXrX$Xt.f f , M [ [ h v / ( v.c.-.j.j.} V.v.c.",
"b v.b V / / g h G M , b j f m < - - p D.&X3XtX4X&X%X[.`.[.`.! X.p...p.@X@XB.[.@X$X$XrXOXz.l j m G [ =.g g / ( *.g.z.V.N.t.N.S.n.",
":.-.b > , b m h g < n %.v 1 < 6 j l p N.$X@X%X%X*X_.`._.%X@XB.p.p.Z.+X3X&X_.Z.oX+X$XrXXXt.' =.H { M H v =.M.;.j l.}  .| t.N.S.j.",
"v k >.1 B M B m B 3 O.B m 1 m < k | ^ k..XoXoXoXoX`._.oX3X$X+X].Z..X$X<X$X$XZ.].+X$X3XT.} r.l.L G ' k v m m M j G z.j.N.z.N.| j.",
"< b / / V V B j B ;.@.( ) k M T.] ] | k.XXoXXXoX_.`.oX+X@X'.'.D.a.Z.Z.N.B..XXX.X+X$X$XD.' r.K h G ( k x 1 m [ j j ;.l.l.j.| ) N.",
"< 4 V ,.B 5 B j :.@.j Q <.Q b [ } ^ ^ | D..XXXXX_.[.@XXX..` ..Z.'.+XoX+X| ` XXoX+X+X$XC.' h.L K g.j M M m H } [ ,.-.[ M } ` X.` ",
"< 3 < V n :.[ l.;.B ( V.>., < / ( ( z z N.D.'.XX_.oX+XN.^ +X3XpXcXcXrX$XZ.^ D..X.X+X.Xt.n.M.m.E.U.c M ' H h.j.j.v.< B *.]  .X.X.",
"< 6 V *.@.x v g.*.:.k b b < g M b b z y k.D._.'.].oX.X` ` D.t._ _ z = = * | _.XXXXXXP.j.L.M.F.U.m.F.c.c.F.*.[ c.;.3 1 3 b ( ) ) ",
"2 Q ( *.*.> 3 N 1 1 B g < , j f , - % % } D.D._.'.oX].B.* * = * = ; p = p +X'.XX.XXXS.} Y.E.x.$.#.F.F.#.#.H B g.;.V 3 3 3 4 5 | ",
"V &.5 V :.< 1 x.;.6 B v < , } z.y % % - z N.Z._._.XX_.'.B.! a.a.a.a.p.a.@X3XP.'..XD.k.} F Y.F.x.x.g.g & N g.g.;.g.B m v < 3 V ] ",
"5 6 5 V 4 n 5 3 N =.*.H =.b [ z.y y y i l } C.Z.D._.D.'.%X}.}.|.|.|.8X8X2X3XXXXXT.N.t.S.n.m.d.c K J J =.=.=.l.l.-.=.c.h.{ =.[ ] ",
"5 6 6 1 < ;.;.;.g.H [ H g.x g v f y y i y F | N.D.'.Z.].%X|.}. X X X X|.7X3X].XXT.y._ C.C.b.m.h h h L G z { j.h.[ v =.h.l.#.=.^ ",
"5 6 > 3 B < V -.=.H ' c.U.x.m m G y i y D p F } N.D.Z.].&X2X|.}.|.|.|.7X6X3X].T.P.t._ _ p.r.d.7.7.7.7.7.F G r.F -.:.H l.b.h.h.[ ",
"3 & 1 b < 1 V 1 H [ ' J h.J L K K F i l F - p F t.S.C._.&X&X3X7X2X%X2X7X6XuX.XT.D.z i z ^.` F y.r.b.b.b.b.b.u.9.r.h.7.7.h.h.r.h.",
"1 6 B b v N [ M z { r.7.6.8.6.6.6.F i z y # - p _ C.C.Z.@X4X4X4X6X6XyXaXfX4X+XP.C.N.i # ~ (.^.X.p.9.u.b.b.b.b.b.b.b.6.S 7.7.J J ",
"5 &.5 2 b N h { K 9.6.4.2.2.4.C q a p ! - + . _ _ k.N.C.'.3XaXaXfXfXkXhXaX$XXXP.t.#Xt.# ! ~ U I (.e.6.0.0.b.b.b.b.b.b.0.9.7.K G ",
"G.J.n v m K F F 6.4.2.Z Z C q C q 0 d ! # + . | | ^ N.C.D.+X3X4X3X3X4X4X$XXXT.N.C.iXP.8 5.s # ~.(.5.2.4.8.9.0.0.0.0.b.b.b.7.K J ",
"*.=.7.7.h.0.0.8.2.A 4.8.A a C q a q d ~ . . . | C.| | t.S.D.'.@X+X]..X+XD.S.C.N..X.X#XF q.q.d /.X.A 0.2.6.6.8.0.0.0.0.0.b.r.K J ",
"g K 0.9.8.0.0.0.3.e a A 4.A a a q q i ~ ~ ; . ^ D.C.^ p k.t.N.D.S.C.N.S.k.} N._.+XXXt.u q.i.^.^.i Z 0.6.2.2.2.4.6.8.8.8.0.b.9.K ",
"J 9.4.S Z A 8.0.0.4.A Z Z 2.A q q 7 9 i U ~ ! ! B._.B.] ] ^ _ | ] ] | ] _ _ C._.oXXX` ` ^.^.~ i a C 8.8.6.S S S S S 2.4.6.8.u.7.",
"a w e S 2.a a 2.8.8.6.S Z Z A C q q w 7 @ * I E E ~ ~ X. .p 2 ^ z z z ^ | B.`.`.`.^.~.~.Q.E = 8 u C 4.4.2.S A A Z Z Z A 2.2.8.J ",
"6.Z q Z 2.2.Z e Z 4.4.2.A Z Z C u q 7 $ 7 @ = I Y Y Y Y E U U U U ; U ! X.~.~.W T R T W.Q.U $ 0 q C A A A S Z Z Z Z Z Z Z Z S K ",
"0.0.4.C Z S 2.A 0 A 2.2.S Z C C a q 8 q $ O + ; W Q.T R Y Y I I I I Y Y Y R R T W.!.!.W U # 7 9 u a C C C C C C C C C C C C C 6.",
"A Z 6.6.S C A S Z q S S A Z C C a u 7 O 8 F F i * E Q.Q.W.T T R R T R T W.Q.Q.Q.Q.W I = + @ $ q q q q q u u q u e e q q q q e A ",
"e 0 0 Z 4.2.A A A C a Z A A Z C C t 8 :XSXKXKXHXiXp ; E T W.W.T T T R R R R R Y I ; # @ @ $ 7 7 $ 7 9 u q q q q q q q q q q q u ",
"C A C w a A A A Z a 0 a C S Z 0 0 I.SXKXJXJXKXKXPXHXr.* U E E E E I I I U ; ; = # O + @ 8 7 $ $ $ 7 7 q q q q q q q q 7 7 9 7 q ",
"C A S C w a C Z a q q q C 8 D I.nXPXKXCXCXFXJXKXKXPXKXn.O = = = = = # # # + O X + + @ $ 8 $ $ 7 9 9 q q q q q q q q 9 7 $ 7 7 7 ",
"C a Z S C q u q u q q q @ L.SXPXPXJXFXCXMXCXGXKXKXKXPXSXO @ @ O O O O O O O + + @ @ @ $ $ 9 q q u q q q q q q q q q 9 7 $ $ $ 7 ",
"4.Z a C A C q q u u 7 i OXGXFXFXLXGXDXNXlXMXDXGXJXGXGXPX,X  $ + O O O X X X + @ @ @ @ @ @ $ $ $ 9 9 9 q q q q q 9 7 7 7 $ $ o $ ",
"6.8.2.Z C C C u q i a.jXCXmXMXmXCXAXCXmXhXlXCXGXGXFXGXKXPXR.O 8 @ @ X + X + X X + @ $ $ $ $ $ $ 7 7 9 q q q q q 7 7 7 $ $ $ o o ",
"2.4.4.2.S 2.S P d (.mXKXVXfXfXfXzXbXMXvXaXaXmXDXGXJXKXKXKXKXe.@ 7 $ $ $ $ @ o X X o @ $ 7 7 9 9 q 9 9 q q q q q 7 7 7 7 $ o o o ",
"q e Z Z s s C _ =XNXPXKXCXaX4X4X9XkXlXmXaX@XuXhXNXGXKXKXKXPXiXO u 7 7 7 7 7 $ $ $ $ $ $ 7 7 9 q q q q 9 q q q q 7 7 7 7 $ o o o ",
"6.4.2.S S A a.=XbXGXFXFXZXdX4X3X6XkXlXxXxX$XoX4XmXDXGXJXGXJXGXe.@ q 9 7 7 9 9 9 9 9 7 7 7 9 9 9 9 q q q q q q 7 7 7 7 7 o X X X ",
"4.2.s a i a.qXzXIXCXMXNXmXgXuXuXuXfXjXjXjXdXoX3XhXZXAXDXGXGXJXVXF 7 q 9 7 7 9 9 9 7 9 7 9 9 9 9 7 9 9 9 q q q 7 7 7 $ 7 o X X X ",
"2.A C q ! 0XDXZXgXjXjXjXxXjXdXuXyXdXkXjXhXgXtX[.%XlXbXFXKXJXDXDXpXO q 7 7 7 7 7 7 7 7 7 7 7 7 7 7 7 7 7 7 7 7 7 7 7 o $ X X X X ",
"2.D F a.nXJXCXgX3X4X6XyXfXjXhXuXyXdXfXkXhXgXuX3XoX4XMXFXDXBXzXlXVXi 7 9 7 7 9 7 7 7 7 7 7 7 7 7 7 7 7 7 7 7 7 7 7 7 o $ X X X X ",
"e.(.=XzXFXNXjXaX&X@X2X4XyXhXxXdX5XgXgXgXgXdXyXyXsX%XzXzXqXqX=XjXDXd w q 7 7 9 9 7 7 7 7 7 7 7 7 7 7 7 7 7 7 7 7 9 $ X o X X X X ",
"=X-X-XzXlXjXjXyX3X@X3XuXuXfXjXxX6XuXgXgXdXdXyXyXsX9X9X=X X(. XNXCXe.t q w w 7 7 9 7 7 7 7 9 9 7 7 7 7 7 7 7 7 7 7 $ X X   X X   ",
"-X).-X0XfXfXkXfXyX3X@X5XuXyXgXjXgX3XdXdXdXdX6X6X6XfX0X}.^.}.fXkXlX{.O q q 7 7 7 9 9 9 7 7 9 9 7 7 7 7 7 7 7 7 7 7 $ X X X     X ",
").).). X6X6XfXhXjXdX$X@XtXuXyXgXhX6X3XpXyXyX6X6X7X0XzXmXfX9XfX6X9X1Xw @ @ 7 9 9 7 9 9 9 7 7 7 7 7 7 7 7 7 7 7 7 $ X X X         "
};
